<svg viewBox="0 0 360 449" width="600" height="748" xmlns="http://www.w3.org/2000/svg">
  <defs>
    <linearGradient x1="87.104" y1="739.347" x2="87.104" y2="835.783" id="a" gradientTransform="scale(3.21455 .31109)" gradientUnits="userSpaceOnUse">
      <stop offset="0%" style="stop-color:#d8ebff"/>
      <stop offset="100%" style="stop-color:#d8ebff"/>
    </linearGradient>
    <linearGradient x1="91.706" y1="1960.612" x2="91.706" y2="2055.481" id="b" gradientTransform="scale(3.16228 .31623)" gradientUnits="userSpaceOnUse">
      <stop offset="0%" style="stop-color:#cbefef"/>
      <stop offset="100%" style="stop-color:#cbefef"/>
    </linearGradient>
  </defs>
  <g transform="translate(-255 -216.518)">
    <rect x="255" y="216.518" width="360" height="449" rx="4.5" ry="4.5" fill="url(#a)" pointer-events="none" style="fill:#fff;fill-opacity:1;stroke:none;stroke-width:1;stroke-dasharray:none;stroke-opacity:1"/>
    <path class="st0" d="M1153.086 289.654c8.335 0 15.114-6.782 15.114-15.117s-6.779-15.114-15.114-15.114-15.114 6.779-15.114 15.114 6.779 15.117 15.114 15.117zm193.714 797.699c8.332 0 15.111-6.779 15.111-15.117 0-8.338-6.779-15.117-15.111-15.117-8.338 0-15.117 6.779-15.117 15.117 0 8.338 6.779 15.117 15.117 15.117zm0-797.699c8.332 0 15.111-6.782 15.111-15.117s-6.779-15.114-15.111-15.114c-8.338 0-15.117 6.779-15.117 15.114s6.779 15.117 15.117 15.117z" style="fill:none" transform="translate(140.526 279.24) scale(.23192)"/>
    <ellipse class="st0" cx="1153.086" cy="1072.236" rx="15.114" ry="15.117" style="fill:none" transform="translate(140.526 279.24) scale(.23192)"/>
    <path class="st1" d="M1428.524 298.883v-28.694h-.001c-1.183 0-2.256-.352-3.245-.856v30.405c.988-.504 2.061-.855 3.245-.855zm0 43.202v-28.689h-.001c-1.183 0-2.256-.352-3.245-.856v30.4c.988-.504 2.061-.855 3.245-.855zm0 43.198v-28.684h-.001c-1.183 0-2.256-.352-3.245-.856v30.395c.988-.504 2.061-.855 3.245-.855h.001zm0 43.194v-28.681h-.001c-1.183 0-2.256-.352-3.245-.856v30.392c.988-.504 2.061-.855 3.245-.855h.001zm0 43.199V442.99h-.001c-1.183 0-2.256-.352-3.245-.856v30.397c.988-.504 2.061-.855 3.245-.855zm0 43.201V486.19h-.001c-1.183 0-2.256-.352-3.245-.856v30.398c.988-.504 2.061-.855 3.245-.855h.001zm0 43.2V529.39h-.001c-1.183 0-2.256-.352-3.245-.856v30.398c.988-.504 2.061-.855 3.245-.855h.001zm0 43.2V572.59h-.001c-1.183 0-2.256-.352-3.245-.856v30.398c.988-.504 2.061-.855 3.245-.855h.001zm0 43.2V615.79h-.001c-1.183 0-2.256-.352-3.245-.856v30.398c.988-.504 2.061-.855 3.245-.855h.001zm0 43.199V658.99h-.001c-1.183 0-2.256-.352-3.245-.856v30.397c.988-.504 2.061-.855 3.245-.855zm0 43.201V702.19h-.001c-1.183 0-2.256-.352-3.245-.856v30.398c.988-.504 2.061-.855 3.245-.855h.001zm0 43.2V745.39h-.001c-1.183 0-2.256-.352-3.245-.856v30.398c.988-.504 2.061-.855 3.245-.855h.001zm0 43.2V788.59h-.001c-1.183 0-2.256-.352-3.245-.856v30.398c.988-.504 2.061-.855 3.245-.855h.001zm0 43.2V831.79h-.001c-1.183 0-2.256-.352-3.245-.856v30.398c.988-.504 2.061-.855 3.245-.855h.001zm0 43.199V874.99h-.001c-1.183 0-2.256-.352-3.245-.856v30.397c.988-.504 2.061-.855 3.245-.855zm0 43.201V918.19h-.001c-1.183 0-2.256-.352-3.245-.856v30.398c.988-.504 2.061-.855 3.245-.855h.001zm0 43.2V961.39h-.001c-1.183 0-2.256-.352-3.245-.856v30.398c.988-.504 2.061-.855 3.245-.855h.001zm0 43.2v-28.687h-.001c-1.183 0-2.256-.352-3.245-.856v30.398c.988-.504 2.061-.855 3.245-.855h.001zm0 43.193v-28.681h-.001c-1.183 0-2.256-.352-3.245-.856v30.391c.988-.504 2.061-.855 3.245-.855l.001.001zm0 14.513h-.001c-1.183 0-2.256-.352-3.245-.856v9.459a4.252 4.252 0 0 1-4.252 4.252h-121.483c.504.988.855 2.061.855 3.245v.001h121.322a6.803 6.803 0 0 0 6.803-6.803v-9.298zm-215.381 12.856c.504.988.855 2.061.855 3.245v.001h28.681v-.001c0-1.183.352-2.256.856-3.245zm43.194 0c.504.988.855 2.061.855 3.245v.001h28.693v-.001c0-1.183.352-2.256.856-3.245zm170.194-862.163-2.499 2.499a4.242 4.242 0 0 1 1.246 3.007v9.35c.988-.504 2.061-.855 3.245-.855h.001v-9.19c0-1.879-.762-3.58-1.993-4.811zm-226.19 862.163h-121.484a4.238 4.238 0 0 1-3.006-1.245l-2.499 2.499a6.783 6.783 0 0 0 4.811 1.993h121.323v-.001c0-1.185.351-2.258.855-3.246z" style="fill:#004e29" transform="translate(140.526 279.24) scale(.23192)"/>
    <path class="st3" d="M1421.721 239.683h-343.559a6.803 6.803 0 0 0-6.803 6.803v9.19h.001c1.184 0 2.257.351 3.245.856v-9.35a4.252 4.252 0 0 1 4.252-4.252h342.169c1.174 0 2.237.476 3.006 1.245l2.499-2.499a6.782 6.782 0 0 0-4.81-1.993zm-350.362 73.713v28.689h.001c1.184 0 2.257.351 3.245.856V312.54c-.988.505-2.061.856-3.245.856zm0 43.202v28.684h.001c1.184 0 2.257.351 3.245.856v-30.396c-.988.505-2.061.856-3.245.856h-.001zm0 43.197v28.681h.001c1.184 0 2.257.351 3.245.856V398.94c-.988.505-2.061.856-3.245.856zm0 43.195v28.687h.001c1.184 0 2.257.351 3.245.856v-30.398c-.988.505-2.061.856-3.245.856l-.001-.001zm0 43.199v28.687h.001c1.184 0 2.257.351 3.245.856v-30.398c-.988.505-2.061.856-3.245.856l-.001-.001zm0 43.2v28.687h.001c1.184 0 2.257.351 3.245.856v-30.398c-.988.505-2.061.856-3.245.856zm0 43.201v28.687h.001c1.184 0 2.257.351 3.245.856v-30.398c-.988.505-2.061.856-3.245.856l-.001-.001zm0 43.2v28.687h.001c1.184 0 2.257.351 3.245.856v-30.398c-.988.505-2.061.856-3.245.856l-.001-.001zm0 43.2v28.687h.001c1.184 0 2.257.351 3.245.856v-30.398c-.988.505-2.061.856-3.245.856l-.001-.001zm0 43.199v28.687h.001c1.184 0 2.257.351 3.245.856v-30.398c-.988.505-2.061.856-3.245.856zm0 43.2v28.687h.001c1.184 0 2.257.351 3.245.856v-30.398c-.988.505-2.061.856-3.245.856zm0 43.201v28.687h.001c1.184 0 2.257.351 3.245.856v-30.398c-.988.505-2.061.856-3.245.856l-.001-.001zm0 43.2v28.687h.001c1.184 0 2.257.351 3.245.856v-30.398c-.988.505-2.061.856-3.245.856l-.001-.001zm0 43.2v28.687h.001c1.184 0 2.257.351 3.245.856v-30.398c-.988.505-2.061.856-3.245.856l-.001-.001zm0 43.199v28.687h.001c1.184 0 2.257.351 3.245.856v-30.398c-.988.505-2.061.856-3.245.856zm0 43.2v28.687h.001c1.184 0 2.257.351 3.245.856v-30.398c-.988.505-2.061.856-3.245.856zm0 43.201v28.687h.001c1.184 0 2.257.351 3.245.856v-30.398c-.988.505-2.061.856-3.245.856l-.001-.001zm0 43.2v28.681h.001c1.184 0 2.257.351 3.245.856v-30.392c-.988.505-2.061.856-3.245.856l-.001-.001zm0-777.601v28.694h.001c1.184 0 2.257.351 3.245.856v-30.405c-.988.505-2.061.856-3.245.856l-.001-.001zm1.993 834.903 2.499-2.499a4.242 4.242 0 0 1-1.246-3.007v-9.458c-.988.504-2.061.855-3.245.855l-.001 9.298c0 1.879.762 3.58 1.993 4.811z" style="fill:#33865f" transform="translate(140.526 279.24) scale(.23192)"/>
    <path class="st2" d="M449.246 58.032v9.351c2.354 1.202 4.015 3.583 4.015 6.401 0 2.818-1.661 5.2-4.015 6.401v30.405c2.354 1.202 4.015 3.583 4.015 6.401 0 2.818-1.661 5.2-4.015 6.401v30.401c2.354 1.202 4.015 3.583 4.015 6.401 0 2.818-1.661 5.2-4.015 6.401v30.396c2.354 1.202 4.015 3.583 4.015 6.401 0 2.818-1.661 5.2-4.015 6.401v30.393c2.354 1.202 4.015 3.583 4.015 6.401 0 2.818-1.661 5.2-4.015 6.401v30.398c2.354 1.202 4.015 3.583 4.015 6.401 0 2.818-1.661 5.2-4.015 6.401v30.398c2.354 1.202 4.015 3.583 4.015 6.401 0 2.818-1.661 5.2-4.015 6.401v30.398c2.354 1.202 4.015 3.583 4.015 6.401 0 2.818-1.661 5.2-4.015 6.401v30.398c2.354 1.202 4.015 3.583 4.015 6.401 0 2.818-1.661 5.2-4.015 6.401v30.398c2.354 1.202 4.015 3.583 4.015 6.401 0 2.818-1.661 5.2-4.015 6.401v30.398c2.354 1.202 4.015 3.583 4.015 6.401 0 2.818-1.661 5.2-4.015 6.401v30.398c2.354 1.202 4.015 3.583 4.015 6.401 0 2.818-1.661 5.2-4.015 6.401v30.398c2.354 1.202 4.015 3.583 4.015 6.401 0 2.818-1.661 5.2-4.015 6.401v30.398c2.354 1.202 4.015 3.583 4.015 6.401 0 2.818-1.661 5.2-4.015 6.401v30.398c2.354 1.202 4.015 3.583 4.015 6.401 0 2.818-1.661 5.2-4.015 6.401v30.398c2.354 1.202 4.015 3.583 4.015 6.401 0 2.818-1.661 5.2-4.015 6.401v30.398c2.354 1.202 4.015 3.583 4.015 6.401 0 2.818-1.661 5.2-4.015 6.401v30.398c2.354 1.202 4.015 3.583 4.015 6.401 0 2.818-1.661 5.2-4.015 6.401v30.398c2.354 1.202 4.015 3.583 4.015 6.401 0 2.818-1.661 5.2-4.015 6.401v30.392c2.354 1.202 4.015 3.583 4.015 6.401 0 2.818-1.661 5.2-4.015 6.401v9.46a4.252 4.252 0 0 0 4.252 4.251h121.484c1.201-2.354 3.582-4.015 6.401-4.015s5.2 1.661 6.401 4.015h30.391c1.201-2.354 3.582-4.015 6.401-4.015s5.2 1.661 6.401 4.015h30.404c1.201-2.354 3.582-4.015 6.401-4.015s5.2 1.661 6.401 4.015h121.483a4.252 4.252 0 0 0 4.252-4.252v-9.459c-2.354-1.2-4.015-3.582-4.015-6.4 0-2.82 1.661-5.2 4.015-6.402v-30.39c-2.354-1.202-4.015-3.583-4.015-6.402s1.661-5.2 4.015-6.4v-30.399c-2.354-1.2-4.015-3.582-4.015-6.4 0-2.82 1.661-5.2 4.015-6.402V771.39c-2.354-1.2-4.015-3.582-4.015-6.4 0-2.82 1.661-5.2 4.015-6.402V728.19c-2.354-1.2-4.015-3.582-4.015-6.4 0-2.82 1.661-5.2 4.015-6.402V684.99c-2.354-1.2-4.015-3.582-4.015-6.4 0-2.82 1.661-5.2 4.015-6.402V641.79c-2.354-1.2-4.015-3.582-4.015-6.4 0-2.82 1.661-5.2 4.015-6.402V598.59c-2.354-1.2-4.015-3.582-4.015-6.4 0-2.82 1.661-5.2 4.015-6.402V555.39c-2.354-1.2-4.015-3.582-4.015-6.4 0-2.82 1.661-5.2 4.015-6.402V512.19c-2.354-1.2-4.015-3.582-4.015-6.4 0-2.82 1.661-5.2 4.015-6.402v-30.397c-2.354-1.2-4.015-3.582-4.015-6.4 0-2.82 1.661-5.2 4.015-6.402v-30.398c-2.354-1.2-4.015-3.582-4.015-6.4 0-2.82 1.661-5.2 4.015-6.402v-30.398c-2.354-1.2-4.015-3.582-4.015-6.4 0-2.82 1.661-5.2 4.015-6.402v-30.398c-2.354-1.2-4.015-3.582-4.015-6.4 0-2.82 1.661-5.2 4.015-6.402v-30.398c-2.354-1.2-4.015-3.582-4.015-6.4 0-2.82 1.661-5.2 4.015-6.402v-30.397c-2.354-1.2-4.015-3.582-4.015-6.4 0-2.82 1.661-5.2 4.015-6.402v-30.399c-2.354-1.2-4.015-3.582-4.015-6.4 0-2.82 1.661-5.2 4.015-6.402v-30.395c-2.354-1.2-4.015-3.582-4.015-6.4 0-2.82 1.661-5.2 4.015-6.402v-30.4c-2.354-1.2-4.015-3.582-4.015-6.4 0-2.82 1.661-5.2 4.015-6.402V80.185c-2.354-1.2-4.015-3.582-4.015-6.4 0-2.82 1.661-5.2 4.015-6.402v-9.35a4.252 4.252 0 0 0-4.252-4.252H453.497a4.25 4.25 0 0 0-4.251 4.251zm24.137 843.728c-3.959 0-7.182-3.223-7.182-7.182 0-3.959 3.223-7.182 7.182-7.182 3.959 0 7.182 3.223 7.182 7.182 0 3.96-3.223 7.182-7.182 7.182zm7.182-50.376c0 3.96-3.223 7.182-7.182 7.182-3.959 0-7.182-3.223-7.182-7.182 0-3.959 3.223-7.182 7.182-7.182 3.959 0 7.182 3.223 7.182 7.182zm0-43.2c0 3.96-3.223 7.182-7.182 7.182-3.959 0-7.182-3.223-7.182-7.182 0-3.959 3.223-7.182 7.182-7.182 3.959 0 7.182 3.223 7.182 7.182zm0-43.2c0 3.96-3.223 7.182-7.182 7.182-3.959 0-7.182-3.223-7.182-7.182 0-3.959 3.223-7.182 7.182-7.182 3.959 0 7.182 3.223 7.182 7.182zm0-43.2c0 3.96-3.223 7.182-7.182 7.182-3.959 0-7.182-3.223-7.182-7.182 0-3.959 3.223-7.182 7.182-7.182 3.959 0 7.182 3.223 7.182 7.182zm0-43.2c0 3.96-3.223 7.182-7.182 7.182-3.959 0-7.182-3.223-7.182-7.182 0-3.959 3.223-7.182 7.182-7.182 3.959 0 7.182 3.223 7.182 7.182zm0-43.2c0 3.96-3.223 7.182-7.182 7.182-3.959 0-7.182-3.223-7.182-7.182 0-3.959 3.223-7.182 7.182-7.182 3.959 0 7.182 3.223 7.182 7.182zm0-43.2c0 3.96-3.223 7.182-7.182 7.182-3.959 0-7.182-3.223-7.182-7.182 0-3.959 3.223-7.182 7.182-7.182 3.959 0 7.182 3.223 7.182 7.182zm0-43.2c0 3.96-3.223 7.182-7.182 7.182-3.959 0-7.182-3.223-7.182-7.182 0-3.959 3.223-7.182 7.182-7.182 3.959 0 7.182 3.223 7.182 7.182zm0-43.2c0 3.96-3.223 7.182-7.182 7.182-3.959 0-7.182-3.223-7.182-7.182 0-3.959 3.223-7.182 7.182-7.182 3.959 0 7.182 3.223 7.182 7.182zm0-43.2c0 3.96-3.223 7.182-7.182 7.182-3.959 0-7.182-3.223-7.182-7.182 0-3.959 3.223-7.182 7.182-7.182 3.959 0 7.182 3.223 7.182 7.182zm0-43.2c0 3.96-3.223 7.182-7.182 7.182-3.959 0-7.182-3.223-7.182-7.182 0-3.959 3.223-7.182 7.182-7.182 3.959 0 7.182 3.223 7.182 7.182zm0-43.2c0 3.96-3.223 7.182-7.182 7.182-3.959 0-7.182-3.223-7.182-7.182 0-3.959 3.223-7.182 7.182-7.182 3.959 0 7.182 3.223 7.182 7.182zm0-43.2c0 3.96-3.223 7.182-7.182 7.182-3.959 0-7.182-3.223-7.182-7.182 0-3.959 3.223-7.182 7.182-7.182 3.959 0 7.182 3.223 7.182 7.182zm0-43.2c0 3.96-3.223 7.182-7.182 7.182-3.959 0-7.182-3.223-7.182-7.182 0-3.959 3.223-7.182 7.182-7.182 3.959 0 7.182 3.223 7.182 7.182zm0-43.2c0 3.96-3.223 7.182-7.182 7.182-3.959 0-7.182-3.223-7.182-7.182 0-3.959 3.223-7.182 7.182-7.182 3.959 0 7.182 3.223 7.182 7.182zm0-43.194c0 3.96-3.223 7.182-7.182 7.182-3.959 0-7.182-3.223-7.182-7.182 0-3.959 3.223-7.182 7.182-7.182 3.959 0 7.182 3.223 7.182 7.182zm0-43.197c0 3.96-3.223 7.182-7.182 7.182-3.959 0-7.182-3.223-7.182-7.182 0-3.959 3.223-7.182 7.182-7.182 3.959 0 7.182 3.223 7.182 7.182zm0-43.202c0 3.96-3.223 7.182-7.182 7.182-3.959 0-7.182-3.223-7.182-7.182 0-3.959 3.223-7.182 7.182-7.182 3.959 0 7.182 3.223 7.182 7.182zm0-43.207c0 3.96-3.223 7.182-7.182 7.182-3.959 0-7.182-3.223-7.182-7.182 0-3.959 3.223-7.182 7.182-7.182 3.959 0 7.182 3.223 7.182 7.182zm47.162 824.42c-8.335 0-15.114-6.779-15.114-15.117 0-8.338 6.779-15.117 15.114-15.117s15.114 6.78 15.114 15.117c0 8.338-6.779 15.117-15.114 15.117zm0-797.699c-8.335 0-15.114-6.782-15.114-15.117s6.779-15.114 15.114-15.114 15.114 6.78 15.114 15.114c0 8.335-6.779 15.117-15.114 15.117zm53.656 801.246c-3.959 0-7.182-3.223-7.182-7.182 0-3.959 3.223-7.182 7.182-7.182 3.959 0 7.182 3.223 7.182 7.182 0 3.96-3.223 7.182-7.182 7.182zm43.193 0c-3.959 0-7.182-3.223-7.182-7.182 0-3.959 3.223-7.182 7.182-7.182 3.959 0 7.182 3.223 7.182 7.182.001 3.96-3.222 7.182-7.182 7.182zm144.024-7.173c0-3.959 3.223-7.182 7.182-7.182 3.959 0 7.182 3.223 7.182 7.182 0 3.96-3.223 7.182-7.182 7.182-3.959 0-7.182-3.223-7.182-7.182zm0-43.194c0-3.959 3.223-7.182 7.182-7.182 3.959 0 7.182 3.223 7.182 7.182 0 3.96-3.223 7.182-7.182 7.182-3.959 0-7.182-3.223-7.182-7.182zm0-43.2c0-3.959 3.223-7.182 7.182-7.182 3.959 0 7.182 3.223 7.182 7.182 0 3.96-3.223 7.182-7.182 7.182-3.959 0-7.182-3.223-7.182-7.182zm0-43.2c0-3.959 3.223-7.182 7.182-7.182 3.959 0 7.182 3.223 7.182 7.182 0 3.96-3.223 7.182-7.182 7.182-3.959 0-7.182-3.223-7.182-7.182zm0-43.2c0-3.959 3.223-7.182 7.182-7.182 3.959 0 7.182 3.223 7.182 7.182 0 3.96-3.223 7.182-7.182 7.182-3.959 0-7.182-3.223-7.182-7.182zm0-43.2c0-3.959 3.223-7.182 7.182-7.182 3.959 0 7.182 3.223 7.182 7.182 0 3.96-3.223 7.182-7.182 7.182-3.959 0-7.182-3.223-7.182-7.182zm0-43.2c0-3.959 3.223-7.182 7.182-7.182 3.959 0 7.182 3.223 7.182 7.182 0 3.96-3.223 7.182-7.182 7.182-3.959 0-7.182-3.223-7.182-7.182zm0-43.2c0-3.959 3.223-7.182 7.182-7.182 3.959 0 7.182 3.223 7.182 7.182 0 3.96-3.223 7.182-7.182 7.182-3.959 0-7.182-3.223-7.182-7.182zm0-43.2c0-3.959 3.223-7.182 7.182-7.182 3.959 0 7.182 3.223 7.182 7.182 0 3.96-3.223 7.182-7.182 7.182-3.959 0-7.182-3.223-7.182-7.182zm0-43.2c0-3.959 3.223-7.182 7.182-7.182 3.959 0 7.182 3.223 7.182 7.182 0 3.96-3.223 7.182-7.182 7.182-3.959 0-7.182-3.223-7.182-7.182zm0-43.2c0-3.959 3.223-7.182 7.182-7.182 3.959 0 7.182 3.223 7.182 7.182 0 3.96-3.223 7.182-7.182 7.182-3.959 0-7.182-3.223-7.182-7.182zm0-43.2c0-3.959 3.223-7.182 7.182-7.182 3.959 0 7.182 3.223 7.182 7.182 0 3.96-3.223 7.182-7.182 7.182-3.959 0-7.182-3.223-7.182-7.182zm0-43.2c0-3.959 3.223-7.182 7.182-7.182 3.959 0 7.182 3.223 7.182 7.182 0 3.96-3.223 7.182-7.182 7.182-3.959 0-7.182-3.223-7.182-7.182zm0-43.2c0-3.959 3.223-7.182 7.182-7.182 3.959 0 7.182 3.223 7.182 7.182 0 3.96-3.223 7.182-7.182 7.182-3.959 0-7.182-3.223-7.182-7.182zm0-43.2c0-3.959 3.223-7.182 7.182-7.182 3.959 0 7.182 3.223 7.182 7.182 0 3.96-3.223 7.182-7.182 7.182-3.959 0-7.182-3.223-7.182-7.182zm0-43.2c0-3.959 3.223-7.182 7.182-7.182 3.959 0 7.182 3.223 7.182 7.182 0 3.96-3.223 7.182-7.182 7.182-3.959 0-7.182-3.223-7.182-7.182zm0-43.194c0-3.959 3.223-7.182 7.182-7.182 3.959 0 7.182 3.223 7.182 7.182 0 3.96-3.223 7.182-7.182 7.182-3.959 0-7.182-3.223-7.182-7.182zm0-43.197c0-3.959 3.223-7.182 7.182-7.182 3.959 0 7.182 3.223 7.182 7.182 0 3.96-3.223 7.182-7.182 7.182-3.959 0-7.182-3.223-7.182-7.182zm0-43.202c0-3.959 3.223-7.182 7.182-7.182 3.959 0 7.182 3.223 7.182 7.182 0 3.96-3.223 7.182-7.182 7.182-3.959 0-7.182-3.223-7.182-7.182zm0-43.207c0-3.959 3.223-7.182 7.182-7.182 3.959 0 7.182 3.223 7.182 7.182 0 3.96-3.223 7.182-7.182 7.182-3.959 0-7.182-3.223-7.182-7.182zM667.783 901.751c-3.959 0-7.182-3.223-7.182-7.182 0-3.959 3.223-7.182 7.182-7.182 3.959 0 7.182 3.223 7.182 7.182 0 3.96-3.223 7.182-7.182 7.182zm53.658-3.547c-8.338 0-15.117-6.779-15.117-15.117 0-8.338 6.779-15.117 15.117-15.117 8.332 0 15.111 6.78 15.111 15.117 0 8.338-6.779 15.117-15.111 15.117zm0-797.699c-8.338 0-15.117-6.782-15.117-15.117s6.779-15.114 15.117-15.114c8.332 0 15.111 6.78 15.111 15.114 0 8.335-6.779 15.117-15.111 15.117z" style="fill:#357844;fill-opacity:1" transform="translate(285.562 323.108) scale(.23192)"/>
    <path class="st4" d="M1110.592 306.139c0-6.533-5.317-11.851-11.85-11.851h-27.383v4.594h.001c4.002 0 7.26 3.255 7.26 7.257s-3.258 7.257-7.26 7.257h-.001v4.594h27.383c6.533 0 11.85-5.317 11.85-11.851zm-11.85 7.183c-3.959 0-7.182-3.223-7.182-7.182 0-3.959 3.223-7.182 7.182-7.182 3.959 0 7.182 3.223 7.182 7.182 0 3.959-3.223 7.182-7.182 7.182zm11.85 24.169h-39.233v4.594h.001c4.002 0 7.26 3.255 7.26 7.257s-3.258 7.257-7.26 7.257h-.001v4.594h39.233zm-11.85 19.033c-3.959 0-7.182-3.223-7.182-7.182 0-3.959 3.223-7.182 7.182-7.182 3.959 0 7.182 3.223 7.182 7.182 0 3.959-3.223 7.182-7.182 7.182zm11.85 36.015c0-6.533-5.317-11.851-11.85-11.851h-27.383v4.594h.001c4.002 0 7.26 3.255 7.26 7.257s-3.258 7.257-7.26 7.257h-.001v4.594h27.383c6.533-.001 11.85-5.318 11.85-11.851zm-11.85 7.182c-3.959 0-7.182-3.223-7.182-7.182 0-3.959 3.223-7.182 7.182-7.182 3.959 0 7.182 3.223 7.182 7.182 0 3.959-3.223 7.182-7.182 7.182zm11.85 36.012c0-6.533-5.317-11.851-11.85-11.851h-27.383v4.594h.001c4.002 0 7.26 3.255 7.26 7.257s-3.258 7.257-7.26 7.257h-.001v4.594h27.383c6.533-.001 11.85-5.318 11.85-11.851zm-11.85 7.182c-3.959 0-7.182-3.223-7.182-7.182 0-3.959 3.223-7.182 7.182-7.182 3.959 0 7.182 3.223 7.182 7.182 0 3.959-3.223 7.182-7.182 7.182zm11.85 36.018c0-6.533-5.317-11.851-11.85-11.851h-27.383v4.594h.001c4.002 0 7.26 3.255 7.26 7.257s-3.258 7.257-7.26 7.257h-.001v4.594h27.383c6.533-.001 11.85-5.318 11.85-11.851zm-11.85 7.182c-3.959 0-7.182-3.223-7.182-7.182 0-3.959 3.223-7.182 7.182-7.182 3.959 0 7.182 3.223 7.182 7.182 0 3.959-3.223 7.182-7.182 7.182zm11.85 36.018c0-6.533-5.317-11.851-11.85-11.851h-27.383v4.594h.001c4.002 0 7.26 3.255 7.26 7.257s-3.258 7.257-7.26 7.257h-.001v4.594h27.383c6.533-.001 11.85-5.318 11.85-11.851zm-11.85 7.182c-3.959 0-7.182-3.223-7.182-7.182 0-3.959 3.223-7.182 7.182-7.182 3.959 0 7.182 3.223 7.182 7.182 0 3.959-3.223 7.182-7.182 7.182zm11.85 24.167h-39.233v4.594h.001c4.002 0 7.26 3.255 7.26 7.257s-3.258 7.257-7.26 7.257h-.001v4.594h39.233zm-11.85 19.033c-3.959 0-7.182-3.223-7.182-7.182 0-3.959 3.223-7.182 7.182-7.182 3.959 0 7.182 3.223 7.182 7.182 0 3.959-3.223 7.182-7.182 7.182zm11.85 36.018c0-6.533-5.317-11.851-11.85-11.851h-27.383v4.594h.001c4.002 0 7.26 3.255 7.26 7.257s-3.258 7.257-7.26 7.257h-.001v4.594h27.383c6.533-.001 11.85-5.318 11.85-11.851zm-11.85 7.182c-3.959 0-7.182-3.223-7.182-7.182 0-3.959 3.223-7.182 7.182-7.182 3.959 0 7.182 3.223 7.182 7.182 0 3.959-3.223 7.182-7.182 7.182zm11.85 36.018c0-6.533-5.317-11.851-11.85-11.851h-27.383v4.594h.001c4.002 0 7.26 3.255 7.26 7.257s-3.258 7.257-7.26 7.257h-.001v4.594h27.383c6.533-.001 11.85-5.318 11.85-11.851zm-11.85 7.182c-3.959 0-7.182-3.223-7.182-7.182 0-3.959 3.223-7.182 7.182-7.182 3.959 0 7.182 3.223 7.182 7.182 0 3.959-3.223 7.182-7.182 7.182zm11.85 36.018c0-6.533-5.317-11.851-11.85-11.851h-27.383v4.594h.001c4.002 0 7.26 3.255 7.26 7.257s-3.258 7.257-7.26 7.257h-.001v4.594h27.383c6.533-.001 11.85-5.318 11.85-11.851zm-11.85 7.182c-3.959 0-7.182-3.223-7.182-7.182 0-3.959 3.223-7.182 7.182-7.182 3.959 0 7.182 3.223 7.182 7.182 0 3.959-3.223 7.182-7.182 7.182zm11.85 36.018c0-6.533-5.317-11.851-11.85-11.851h-27.383v4.594h.001c4.002 0 7.26 3.255 7.26 7.257s-3.258 7.257-7.26 7.257h-.001v4.594h27.383c6.533-.001 11.85-5.318 11.85-11.851zm-11.85 7.182c-3.959 0-7.182-3.223-7.182-7.182 0-3.959 3.223-7.182 7.182-7.182 3.959 0 7.182 3.223 7.182 7.182 0 3.959-3.223 7.182-7.182 7.182zm11.85 24.167h-39.233v4.594h.001c4.002 0 7.26 3.255 7.26 7.257s-3.258 7.257-7.26 7.257h-.001v4.594h39.233zm-11.85 19.033c-3.959 0-7.182-3.223-7.182-7.182 0-3.959 3.223-7.182 7.182-7.182 3.959 0 7.182 3.223 7.182 7.182 0 3.959-3.223 7.182-7.182 7.182zm11.85 36.018c0-6.533-5.317-11.851-11.85-11.851h-27.383v4.594h.001c4.002 0 7.26 3.255 7.26 7.257s-3.258 7.257-7.26 7.257h-.001v4.594h27.383c6.533-.001 11.85-5.318 11.85-11.851zm-11.85 7.182c-3.959 0-7.182-3.223-7.182-7.182 0-3.959 3.223-7.182 7.182-7.182 3.959 0 7.182 3.223 7.182 7.182 0 3.959-3.223 7.182-7.182 7.182zm11.85 36.018c0-6.533-5.317-11.851-11.85-11.851h-27.383v4.594h.001c4.002 0 7.26 3.255 7.26 7.257s-3.258 7.257-7.26 7.257h-.001v4.594h27.383c6.533-.001 11.85-5.318 11.85-11.851zm-11.85 7.182c-3.959 0-7.182-3.223-7.182-7.182 0-3.959 3.223-7.182 7.182-7.182 3.959 0 7.182 3.223 7.182 7.182 0 3.959-3.223 7.182-7.182 7.182zm11.85 36.018c0-6.533-5.317-11.851-11.85-11.851h-27.383v4.594h.001c4.002 0 7.26 3.255 7.26 7.257s-3.258 7.257-7.26 7.257h-.001v4.594h27.383c6.533-.001 11.85-5.318 11.85-11.851zm-11.85 7.182c-3.959 0-7.182-3.223-7.182-7.182 0-3.959 3.223-7.182 7.182-7.182 3.959 0 7.182 3.223 7.182 7.182 0 3.959-3.223 7.182-7.182 7.182zm11.85 36.018c0-6.533-5.317-11.851-11.85-11.851h-27.383v4.594h.001c4.002 0 7.26 3.255 7.26 7.257s-3.258 7.257-7.26 7.257h-.001v4.594h27.383c6.533-.001 11.85-5.318 11.85-11.851zm-11.85 7.182c-3.959 0-7.182-3.223-7.182-7.182 0-3.959 3.223-7.182 7.182-7.182 3.959 0 7.182 3.223 7.182 7.182 0 3.959-3.223 7.182-7.182 7.182zm11.85 24.167h-39.233v4.594h.001c4.002 0 7.26 3.255 7.26 7.257s-3.258 7.257-7.26 7.257h-.001v4.594h39.233zm-11.85 19.033c-3.959 0-7.182-3.223-7.182-7.182 0-3.959 3.223-7.182 7.182-7.182 3.959 0 7.182 3.223 7.182 7.182 0 3.959-3.223 7.182-7.182 7.182zm11.85 36.018c0-6.533-5.317-11.851-11.85-11.851h-27.383v4.594h.001c4.002 0 7.26 3.255 7.26 7.257s-3.258 7.257-7.26 7.257h-.001v4.594h27.383c6.533-.001 11.85-5.318 11.85-11.851zm-11.85 7.182c-3.959 0-7.182-3.223-7.182-7.182 0-3.959 3.223-7.182 7.182-7.182 3.959 0 7.182 3.223 7.182 7.182 0 3.959-3.223 7.182-7.182 7.182zm11.85 36.012c0-6.533-5.317-11.851-11.85-11.851h-27.383v4.594h.001c4.002 0 7.26 3.255 7.26 7.257s-3.258 7.257-7.26 7.257h-.001v4.594h27.383c6.533-.001 11.85-5.318 11.85-11.851zm-11.85 7.182c-3.959 0-7.182-3.223-7.182-7.182 0-3.959 3.223-7.182 7.182-7.182 3.959 0 7.182 3.223 7.182 7.182 0 3.959-3.223 7.182-7.182 7.182zm302.399-772.919h27.383v-4.594h-.001c-4.002 0-7.26-3.255-7.26-7.257s3.258-7.257 7.26-7.257h.001v-4.594h-27.383c-6.533 0-11.85 5.317-11.85 11.851 0 6.534 5.316 11.851 11.85 11.851zm-7.182-11.85c0-3.959 3.223-7.182 7.182-7.182 3.959 0 7.182 3.223 7.182 7.182 0 3.959-3.223 7.182-7.182 7.182-3.959 0-7.182-3.223-7.182-7.182zm-4.669 55.052h39.233v-4.594h-.001c-4.002 0-7.26-3.255-7.26-7.257s3.258-7.257 7.26-7.257h.001v-4.594h-39.233zm4.669-11.85c0-3.959 3.223-7.182 7.182-7.182 3.959 0 7.182 3.223 7.182 7.182 0 3.959-3.223 7.182-7.182 7.182-3.959 0-7.182-3.223-7.182-7.182zm7.182 55.047h27.383v-4.594h-.001c-4.002 0-7.26-3.255-7.26-7.257s3.258-7.257 7.26-7.257h.001v-4.594h-27.383c-6.533 0-11.85 5.317-11.85 11.851 0 6.534 5.316 11.851 11.85 11.851zm-7.182-11.85c0-3.959 3.223-7.182 7.182-7.182 3.959 0 7.182 3.223 7.182 7.182 0 3.959-3.223 7.182-7.182 7.182-3.959 0-7.182-3.223-7.182-7.182zm7.182 55.044h27.383v-4.594h-.001c-4.002 0-7.26-3.255-7.26-7.257s3.258-7.257 7.26-7.257h.001v-4.594h-27.383c-6.533 0-11.85 5.317-11.85 11.851 0 6.534 5.316 11.851 11.85 11.851zm-7.182-11.85c0-3.959 3.223-7.182 7.182-7.182 3.959 0 7.182 3.223 7.182 7.182 0 3.959-3.223 7.182-7.182 7.182-3.959 0-7.182-3.223-7.182-7.182zm7.182 55.05h27.383v-4.594h-.001c-4.002 0-7.26-3.255-7.26-7.257s3.258-7.257 7.26-7.257h.001v-4.594h-27.383c-6.533 0-11.85 5.317-11.85 11.851 0 6.534 5.316 11.851 11.85 11.851zm-7.182-11.85c0-3.959 3.223-7.182 7.182-7.182 3.959 0 7.182 3.223 7.182 7.182 0 3.959-3.223 7.182-7.182 7.182-3.959 0-7.182-3.223-7.182-7.182zm7.182 55.05h27.383v-4.594h-.001c-4.002 0-7.26-3.255-7.26-7.257s3.258-7.257 7.26-7.257h.001v-4.594h-27.383c-6.533 0-11.85 5.317-11.85 11.851 0 6.534 5.316 11.851 11.85 11.851zm-7.182-11.85c0-3.959 3.223-7.182 7.182-7.182 3.959 0 7.182 3.223 7.182 7.182 0 3.959-3.223 7.182-7.182 7.182-3.959 0-7.182-3.223-7.182-7.182zm-4.669 55.05h39.233v-4.594h-.001c-4.002 0-7.26-3.255-7.26-7.257s3.258-7.257 7.26-7.257h.001v-4.594h-39.233zm4.669-11.85c0-3.959 3.223-7.182 7.182-7.182 3.959 0 7.182 3.223 7.182 7.182 0 3.959-3.223 7.182-7.182 7.182-3.959 0-7.182-3.223-7.182-7.182zm7.182 55.05h27.383v-4.594h-.001c-4.002 0-7.26-3.255-7.26-7.257s3.258-7.257 7.26-7.257h.001v-4.594h-27.383c-6.533 0-11.85 5.317-11.85 11.851 0 6.534 5.316 11.851 11.85 11.851zm-7.182-11.85c0-3.959 3.223-7.182 7.182-7.182 3.959 0 7.182 3.223 7.182 7.182 0 3.959-3.223 7.182-7.182 7.182-3.959 0-7.182-3.223-7.182-7.182zm7.182 55.05h27.383v-4.594h-.001c-4.002 0-7.26-3.255-7.26-7.257s3.258-7.257 7.26-7.257h.001v-4.594h-27.383c-6.533 0-11.85 5.317-11.85 11.851 0 6.534 5.316 11.851 11.85 11.851zm-7.182-11.85c0-3.959 3.223-7.182 7.182-7.182 3.959 0 7.182 3.223 7.182 7.182 0 3.959-3.223 7.182-7.182 7.182-3.959 0-7.182-3.223-7.182-7.182zm7.182 55.05h27.383v-4.594h-.001c-4.002 0-7.26-3.255-7.26-7.257s3.258-7.257 7.26-7.257h.001v-4.594h-27.383c-6.533 0-11.85 5.317-11.85 11.851 0 6.534 5.316 11.851 11.85 11.851zm-7.182-11.85c0-3.959 3.223-7.182 7.182-7.182 3.959 0 7.182 3.223 7.182 7.182 0 3.959-3.223 7.182-7.182 7.182-3.959 0-7.182-3.223-7.182-7.182zm7.182 55.05h27.383v-4.594h-.001c-4.002 0-7.26-3.255-7.26-7.257s3.258-7.257 7.26-7.257h.001v-4.594h-27.383c-6.533 0-11.85 5.317-11.85 11.851 0 6.534 5.316 11.851 11.85 11.851zm-7.182-11.85c0-3.959 3.223-7.182 7.182-7.182 3.959 0 7.182 3.223 7.182 7.182 0 3.959-3.223 7.182-7.182 7.182-3.959 0-7.182-3.223-7.182-7.182zm-4.669 55.05h39.233v-4.594h-.001c-4.002 0-7.26-3.255-7.26-7.257s3.258-7.257 7.26-7.257h.001v-4.594h-39.233zm4.669-11.85c0-3.959 3.223-7.182 7.182-7.182 3.959 0 7.182 3.223 7.182 7.182 0 3.959-3.223 7.182-7.182 7.182-3.959 0-7.182-3.223-7.182-7.182zm7.182 55.05h27.383v-4.594h-.001c-4.002 0-7.26-3.255-7.26-7.257s3.258-7.257 7.26-7.257h.001v-4.594h-27.383c-6.533 0-11.85 5.317-11.85 11.851 0 6.534 5.316 11.851 11.85 11.851zm-7.182-11.85c0-3.959 3.223-7.182 7.182-7.182 3.959 0 7.182 3.223 7.182 7.182 0 3.959-3.223 7.182-7.182 7.182-3.959 0-7.182-3.223-7.182-7.182zm7.182 55.05h27.383v-4.594h-.001c-4.002 0-7.26-3.255-7.26-7.257s3.258-7.257 7.26-7.257h.001v-4.594h-27.383c-6.533 0-11.85 5.317-11.85 11.851 0 6.534 5.316 11.851 11.85 11.851zm-7.182-11.85c0-3.959 3.223-7.182 7.182-7.182 3.959 0 7.182 3.223 7.182 7.182 0 3.959-3.223 7.182-7.182 7.182-3.959 0-7.182-3.223-7.182-7.182zm7.182 55.05h27.383v-4.594h-.001c-4.002 0-7.26-3.255-7.26-7.257s3.258-7.257 7.26-7.257h.001v-4.594h-27.383c-6.533 0-11.85 5.317-11.85 11.851 0 6.534 5.316 11.851 11.85 11.851zm-7.182-11.85c0-3.959 3.223-7.182 7.182-7.182 3.959 0 7.182 3.223 7.182 7.182 0 3.959-3.223 7.182-7.182 7.182-3.959 0-7.182-3.223-7.182-7.182zm7.182 55.05h27.383v-4.594h-.001c-4.002 0-7.26-3.255-7.26-7.257s3.258-7.257 7.26-7.257h.001v-4.594h-27.383c-6.533 0-11.85 5.317-11.85 11.851 0 6.534 5.316 11.851 11.85 11.851zm-7.182-11.85c0-3.959 3.223-7.182 7.182-7.182 3.959 0 7.182 3.223 7.182 7.182 0 3.959-3.223 7.182-7.182 7.182-3.959 0-7.182-3.223-7.182-7.182zm-4.669 55.05h39.233v-4.594h-.001c-4.002 0-7.26-3.255-7.26-7.257s3.258-7.257 7.26-7.257h.001v-4.594h-39.233zm4.669-11.85c0-3.959 3.223-7.182 7.182-7.182 3.959 0 7.182 3.223 7.182 7.182 0 3.959-3.223 7.182-7.182 7.182-3.959 0-7.182-3.223-7.182-7.182zm7.182 55.05h27.383v-4.594h-.001c-4.002 0-7.26-3.255-7.26-7.257s3.258-7.257 7.26-7.257h.001v-4.594h-27.383c-6.533 0-11.85 5.317-11.85 11.851 0 6.534 5.316 11.851 11.85 11.851zm-7.182-11.85c0-3.959 3.223-7.182 7.182-7.182 3.959 0 7.182 3.223 7.182 7.182 0 3.959-3.223 7.182-7.182 7.182-3.959 0-7.182-3.223-7.182-7.182zm7.182 55.044h27.383v-4.594h-.001c-4.002 0-7.26-3.255-7.26-7.257s3.258-7.257 7.26-7.257h.001v-4.594h-27.383c-6.533 0-11.85 5.317-11.85 11.851 0 6.534 5.316 11.851 11.85 11.851zm-7.182-11.85c0-3.959 3.223-7.182 7.182-7.182 3.959 0 7.182 3.223 7.182 7.182 0 3.959-3.223 7.182-7.182 7.182-3.959 0-7.182-3.223-7.182-7.182zm-187.217-11.86c-6.533 0-11.851 5.317-11.851 11.85v23.367h4.594v-.001c0-4.002 3.255-7.26 7.257-7.26s7.257 3.258 7.257 7.26v.001h4.594v-23.367c-.001-6.533-5.318-11.85-11.851-11.85zm7.182 11.851c0 3.959-3.223 7.182-7.182 7.182-3.959 0-7.182-3.223-7.182-7.182 0-3.959 3.223-7.182 7.182-7.182 3.959 0 7.182 3.223 7.182 7.182zm24.16-11.482v34.849h4.594v-.001c0-4.002 3.255-7.26 7.257-7.26s7.257 3.258 7.257 7.26v.001h4.594v-34.849zm19.034 11.482c0 3.959-3.223 7.182-7.182 7.182-3.959 0-7.182-3.223-7.182-7.182 0-3.959 3.223-7.182 7.182-7.182 3.959 0 7.182 3.223 7.182 7.182zm36.023-11.851c-6.533 0-11.851 5.317-11.851 11.85v23.367h4.594v-.001c0-4.002 3.255-7.26 7.257-7.26s7.257 3.258 7.257 7.26v.001h4.594v-23.367c0-6.533-5.318-11.85-11.851-11.85zm7.183 11.851c0 3.959-3.223 7.182-7.182 7.182-3.959 0-7.182-3.223-7.182-7.182 0-3.959 3.223-7.182 7.182-7.182 3.959 0 7.182 3.223 7.182 7.182zm100.817-808.935h27.383v-4.594h-.001c-4.002 0-7.26-3.255-7.26-7.257s3.258-7.257 7.26-7.257h.001v-4.594h-27.383c-6.533 0-11.85 5.317-11.85 11.851 0 6.534 5.316 11.851 11.85 11.851zm-7.182-11.85c0-3.959 3.223-7.182 7.182-7.182 3.959 0 7.182 3.223 7.182 7.182 0 3.959-3.223 7.182-7.182 7.182-3.959 0-7.182-3.223-7.182-7.182zm-283.367-.001c0-6.533-5.317-11.851-11.85-11.851h-27.383v4.594h.001c4.002 0 7.26 3.255 7.26 7.257s-3.258 7.257-7.26 7.257h-.001v4.594h27.383c6.533 0 11.85-5.318 11.85-11.851zm-11.85 7.183c-3.959 0-7.182-3.223-7.182-7.182 0-3.959 3.223-7.182 7.182-7.182 3.959 0 7.182 3.223 7.182 7.182 0 3.959-3.223 7.182-7.182 7.182z" style="fill:#9a916c" transform="translate(140.526 279.24) scale(.23192)"/>
    <path class="st5" d="M1153.085 1099.351c-14.951 0-27.115-12.164-27.115-27.115 0-14.951 12.164-27.115 27.115-27.115 14.951 0 27.115 12.164 27.115 27.115 0 14.951-12.163 27.115-27.115 27.115zm0-42.23c-8.335 0-15.115 6.78-15.115 15.115s6.78 15.115 15.115 15.115 15.115-6.78 15.115-15.115-6.78-15.115-15.115-15.115zm193.712 42.23c-14.952 0-27.116-12.164-27.116-27.115 0-14.951 12.164-27.115 27.116-27.115 14.951 0 27.115 12.164 27.115 27.115 0 14.951-12.163 27.115-27.115 27.115zm0-42.23c-8.335 0-15.116 6.78-15.116 15.115s6.781 15.115 15.116 15.115 15.115-6.78 15.115-15.115-6.78-15.115-15.115-15.115zm-193.712-755.468c-14.951 0-27.115-12.164-27.115-27.115 0-14.951 12.164-27.115 27.115-27.115 14.951 0 27.115 12.164 27.115 27.115 0 14.951-12.163 27.115-27.115 27.115zm0-42.231c-8.335 0-15.115 6.78-15.115 15.115s6.78 15.115 15.115 15.115 15.115-6.78 15.115-15.115-6.78-15.115-15.115-15.115zm193.712 42.231c-14.952 0-27.116-12.164-27.116-27.115 0-14.951 12.164-27.115 27.116-27.115 14.951 0 27.115 12.164 27.115 27.115 0 14.951-12.163 27.115-27.115 27.115zm0-42.231c-8.335 0-15.116 6.78-15.116 15.115s6.781 15.115 15.116 15.115 15.115-6.78 15.115-15.115-6.78-15.115-15.115-15.115z" style="fill:#fcee21" transform="translate(140.526 279.24) scale(.23192)"/>
    <path class="st6" style="fill:#30312e" d="M1190.021 613.463h119.842v119.842h-119.842z" transform="translate(140.526 279.24) scale(.23192)"/>
    <path class="st7" d="M1306.067 307.719h-112.252a3.402 3.402 0 0 1-3.402-3.402v-83.613a3.402 3.402 0 0 1 3.402-3.402h112.252a3.402 3.402 0 0 1 3.402 3.402v83.613a3.402 3.402 0 0 1-3.402 3.402z" style="fill:#363a44" transform="translate(140.526 279.24) scale(.23192)"/>
    <path class="st8" d="M1198.94 205.667a3.4 3.4 0 0 0-3.256 2.418l-1.866 6.178-3.404 3.404v86.65a3.402 3.402 0 0 0 3.402 3.402h20.759a1.7 1.7 0 0 0 1.701-1.701v-4.966a3.403 3.403 0 0 0-1.77-2.985l-11.554-6.315a3.402 3.402 0 0 1-1.77-2.985v-4.962h7.547v-5.718h11.665v5.718h6.861v11.827a3.402 3.402 0 0 0 3.402 3.402h5.518v-6.131h27.537v6.131h5.518a3.402 3.402 0 0 0 3.402-3.402v-11.827h6.861v-5.718h11.665v5.718h7.547v4.962a3.403 3.403 0 0 1-1.77 2.985l-11.554 6.315a3.402 3.402 0 0 0-1.77 2.985v4.966a1.7 1.7 0 0 0 1.701 1.701h20.759a3.402 3.402 0 0 0 3.402-3.402v-86.65l-3.404-3.404-1.866-6.178a3.401 3.401 0 0 0-3.256-2.418z" style="fill:#dbddda" transform="translate(140.526 279.24) scale(.23192)"/>
    <path class="st8" d="M1194.145 222.963c-1.495-1.991-3.012-4.003-4.377-6.298a23.437 23.437 0 0 1-1.786-3.663 24.861 24.861 0 0 1-1.101-3.859 2.037 2.037 0 0 1 1.586-2.407 2.04 2.04 0 0 1 2.339 1.334v.008c.754 2.195 1.734 4.025 3.135 5.774 1.381 1.755 3.051 3.469 4.739 5.186l.011.011a3.007 3.007 0 1 1-4.549 3.914zm107.055-3.925c1.688-1.717 3.357-3.431 4.739-5.186 1.401-1.749 2.381-3.58 3.135-5.774v-.008a2.038 2.038 0 0 1 3.925 1.073 24.924 24.924 0 0 1-1.101 3.859 23.394 23.394 0 0 1-1.786 3.663c-1.364 2.296-2.881 4.307-4.376 6.298a3.007 3.007 0 1 1-4.561-3.901zm-69.162 622.503h-44.22a3.402 3.402 0 0 1-3.402-3.402v-27.213a3.402 3.402 0 0 1 3.402-3.402h44.22a3.402 3.402 0 0 1 3.402 3.402v27.213a3.402 3.402 0 0 1-3.402 3.402z" style="fill:#dbddda" transform="translate(140.526 279.24) scale(.23192)"/>
    <path transform="rotate(90 205.605 339.059) scale(.23192)" class="st9" style="fill:#2a2d2e" d="M1160.058 539.968h51.024v34.016h-51.024z"/>
    <path transform="rotate(90 231.692 306.838) scale(.23192)" class="st9" style="fill:#2a2d2e" d="M1276.789 396.786h42.52v42.52h-42.52z"/>
    <path transform="rotate(90 243.95 289.774) scale(.23192)" class="st9" style="fill:#2a2d2e" d="M1329.645 331.712h42.52v25.512h-42.52z"/>
    <path transform="rotate(90 198.04 283.223) scale(.23192)" class="st10" style="fill:#ecf6fd" d="M1144.443 303.467h17.008v25.512h-17.008z"/>
    <path class="st11" d="M1167.91 402.68h44.22a3.402 3.402 0 0 1 3.402 3.402v61.228a3.402 3.402 0 0 1-3.402 3.402h-44.22a3.402 3.402 0 0 1-3.402-3.402v-61.228a3.403 3.403 0 0 1 3.402-3.402z" style="fill:#ccc" transform="translate(140.526 279.24) scale(.23192)"/>
    <path class="st12" d="M1190.021 406.932c11.741 0 21.26 9.518 21.26 21.26V445.2c0 11.741-9.518 21.26-21.26 21.26-11.741 0-21.26-9.518-21.26-21.26v-17.008c0-11.742 9.518-21.26 21.26-21.26zm-25.512-.851v6.388c0 3.03 3.664 4.548 5.807 2.405l6.388-6.388c2.143-2.143.625-5.807-2.405-5.807h-6.388a3.403 3.403 0 0 0-3.402 3.402zm47.622-3.401h-6.388c-3.031 0-4.548 3.664-2.405 5.807l6.388 6.388c2.143 2.143 5.807.625 5.807-2.405v-6.388a3.402 3.402 0 0 0-3.402-3.402z" style="fill:#fff" transform="translate(140.526 279.24) scale(.23192)"/>
    <path class="st12" d="M1215.532 467.129v-6.388c0-3.03-3.664-4.548-5.807-2.405l-6.388 6.388c-2.143 2.143-.625 5.807 2.405 5.807h6.388a3.401 3.401 0 0 0 3.402-3.402zm-47.622 3.402h6.388c3.031 0 4.548-3.664 2.405-5.807l-6.388-6.388c-2.143-2.143-5.807-.625-5.807 2.405v6.388a3.403 3.403 0 0 0 3.402 3.402z" style="fill:#fff" transform="translate(140.526 279.24) scale(.23192)"/>
    <path class="st9" d="M1333.897 435.904v-35.717a3.402 3.402 0 0 1 3.401-3.402h27.213a3.402 3.402 0 0 1 3.402 3.402v35.717a3.402 3.402 0 0 1-3.402 3.402h-27.213a3.402 3.402 0 0 1-3.401-3.402z" style="fill:#2a2d2e" transform="translate(140.526 279.24) scale(.23192)"/>
    <path transform="rotate(-90 510.932 175.948) scale(.23192)" class="st8" style="fill:#dbddda" d="M1285.293 442.586h25.512v34.016h-25.512z"/>
    <path class="st8" style="fill:#dbddda" d="M1315.057 493.274h17.008v34.016h-17.008z" transform="translate(140.526 279.24) scale(.23192)"/>
    <path class="st9" style="fill:#2a2d2e" d="M1315.057 499.226h17.008v22.112h-17.008z" transform="translate(140.526 279.24) scale(.23192)"/>
    <path transform="matrix(0 -.23192 .23192 0 354.364 667.5)" class="st8" style="fill:#dbddda" d="M1285.293 359.025h25.512v34.016h-25.512z"/>
    <path transform="matrix(0 -.23192 .23192 0 354.364 667.5)" class="st14" style="fill:#958863" d="M1285.293 363.277h25.512v25.512h-25.512z"/>
    <path transform="rotate(-90 510.932 175.948) scale(.23192)" class="st14" style="fill:#958863" d="M1285.293 446.838h25.512v25.512h-25.512z"/>
    <circle class="st4" cx="1352.642" cy="1004.515" r="7.182" style="fill:#9a916c" transform="translate(140.526 279.24) scale(.23192)"/>
    <circle class="st4" cx="1151.956" cy="362.924" r="7.182" style="fill:#9a916c" transform="translate(140.526 279.24) scale(.23192)"/>
    <path transform="rotate(90 209.493 294.187) scale(.23192)" class="st8" style="fill:#dbddda" d="M1198.082 354.996h8.504v17.008h-8.504z"/>
    <path transform="rotate(90 209.493 294.187) scale(.23192)" class="st9" style="fill:#2a2d2e" d="M1198.082 357.122h8.504v12.756h-8.504z"/>
    <path transform="rotate(180 385.209 275.744) scale(.23192)" class="st8" style="fill:#dbddda" d="M1353.716 578.429h8.504v17.008h-8.504z"/>
    <path transform="rotate(180 385.209 275.744) scale(.23192)" class="st9" style="fill:#2a2d2e" d="M1353.716 580.555h8.504v12.756h-8.504z"/>
    <path transform="rotate(180 385.209 275.744) scale(.23192)" class="st8" style="fill:#dbddda" d="M1353.716 578.429h8.504v17.008h-8.504z"/>
    <path transform="rotate(-90 525.233 195.254) scale(.23192)" class="st9" style="fill:#2a2d2e" d="M1355.46 530.082h8.504v25.512h-8.504z"/>
    <path transform="rotate(180 385.209 275.744) scale(.23192)" class="st9" style="fill:#2a2d2e" d="M1353.716 580.555h8.504v12.756h-8.504z"/>
    <path transform="rotate(180 381.44 275.744) scale(.23192)" class="st8" style="fill:#dbddda" d="M1337.463 578.429h8.504v17.008h-8.504z"/>
    <path transform="rotate(180 381.44 275.744) scale(.23192)" class="st9" style="fill:#2a2d2e" d="M1337.463 580.555h8.504v12.756h-8.504z"/>
    <path transform="rotate(180 377.67 275.744) scale(.23192)" class="st8" style="fill:#dbddda" d="M1321.21 578.429h8.504v17.008h-8.504z"/>
    <path transform="rotate(180 377.67 275.744) scale(.23192)" class="st4" style="fill:#9a916c" d="M1321.21 580.555h8.504v12.756h-8.504z"/>
    <path transform="rotate(180 365.577 275.744) scale(.23192)" class="st8" style="fill:#dbddda" d="M1270.129 580.555h6.378v12.756h-6.378z"/>
    <path transform="rotate(180 365.577 275.744) scale(.23192)" class="st9" style="fill:#2a2d2e" d="M1270.129 582.681h6.378v8.504h-6.378z"/>
    <path transform="rotate(180 362.75 275.744) scale(.23192)" class="st8" style="fill:#dbddda" d="M1257.939 580.555h6.378v12.756h-6.378z"/>
    <path transform="rotate(180 362.75 275.744) scale(.23192)" class="st9" style="fill:#2a2d2e" d="M1257.939 582.681h6.378v8.504h-6.378z"/>
    <path transform="rotate(180 359.922 275.744) scale(.23192)" class="st8" style="fill:#dbddda" d="M1245.75 580.555h6.378v12.756h-6.378z"/>
    <path transform="rotate(180 359.922 275.744) scale(.23192)" class="st4" style="fill:#9a916c" d="M1245.75 582.681h6.378v8.504h-6.378z"/>
    <path transform="rotate(180 383.57 256.853) scale(.23192)" class="st8" style="fill:#dbddda" d="M1347.716 499.103h6.378v12.756h-6.378z"/>
    <path transform="rotate(180 383.57 256.853) scale(.23192)" class="st4" style="fill:#9a916c" d="M1347.716 501.229h6.378v8.504h-6.378z"/>
    <path transform="rotate(180 357.095 275.744) scale(.23192)" class="st8" style="fill:#dbddda" d="M1233.56 580.555h6.378v12.756h-6.378z"/>
    <path transform="rotate(180 357.095 275.744) scale(.23192)" class="st4" style="fill:#9a916c" d="M1233.56 582.681h6.378v8.504h-6.378z"/>
    <path transform="rotate(180 341.989 259.446) scale(.23192)" class="st8" style="fill:#dbddda" d="M1168.427 510.282h6.378v12.756h-6.378z"/>
    <path transform="rotate(180 341.989 259.446) scale(.23192)" class="st4" style="fill:#9a916c" d="M1168.427 512.408h6.378v8.504h-6.378z"/>
    <path transform="rotate(180 362.793 316.337) scale(.23192)" class="st8" style="fill:#dbddda" d="M1258.129 755.583h6.378v12.756h-6.378z"/>
    <path transform="rotate(180 362.793 316.337) scale(.23192)" class="st4" style="fill:#9a916c" d="M1258.129 757.709h6.378v8.504h-6.378z"/>
    <path transform="rotate(180 359.966 316.337) scale(.23192)" class="st8" style="fill:#dbddda" d="M1245.939 755.583h6.378v12.756h-6.378z"/>
    <path transform="rotate(180 359.966 316.337) scale(.23192)" class="st4" style="fill:#9a916c" d="M1245.939 757.709h6.378v8.504h-6.378z"/>
    <path transform="rotate(180 359.966 328.384) scale(.23192)" class="st8" style="fill:#dbddda" d="M1245.939 807.525h6.378v12.756h-6.378z"/>
    <path transform="rotate(180 359.966 328.384) scale(.23192)" class="st4" style="fill:#9a916c" d="M1245.939 809.651h6.378v8.504h-6.378z"/>
    <path transform="rotate(180 341.496 333.315) scale(.23192)" class="st8" style="fill:#dbddda" d="M1166.301 828.785h6.378v12.756h-6.378z"/>
    <path transform="rotate(180 341.496 333.315) scale(.23192)" class="st4" style="fill:#9a916c" d="M1166.301 830.911h6.378v8.504h-6.378z"/>
    <path transform="rotate(180 372.3 275.744) scale(.23192)" class="st8" style="fill:#dbddda" d="M1298.057 578.429h8.504v17.008h-8.504z"/>
    <path transform="rotate(180 372.3 275.744) scale(.23192)" class="st4" style="fill:#9a916c" d="M1298.057 580.555h8.504v12.756h-8.504z"/>
    <path transform="rotate(180 368.53 275.744) scale(.23192)" class="st8" style="fill:#dbddda" d="M1281.804 578.429h8.504v17.008h-8.504z"/>
    <path transform="rotate(180 368.53 275.744) scale(.23192)" class="st4" style="fill:#9a916c" d="M1281.804 580.555h8.504v12.756h-8.504z"/>
    <path transform="rotate(90 209.493 290.76) scale(.23192)" class="st8" style="fill:#dbddda" d="M1198.082 340.216h8.504v17.008h-8.504z"/>
    <path transform="rotate(90 209.493 290.76) scale(.23192)" class="st9" style="fill:#2a2d2e" d="M1198.082 342.342h8.504v12.756h-8.504z"/>
    <path transform="rotate(90 231.692 290.76) scale(.23192)" class="st8" style="fill:#dbddda" d="M1293.797 340.216h8.504v17.008h-8.504z"/>
    <path transform="rotate(90 231.692 290.76) scale(.23192)" class="st9" style="fill:#2a2d2e" d="M1293.797 342.342h8.504v12.756h-8.504z"/>
    <path transform="rotate(180 338.402 264.851) scale(.23192)" class="st8" style="fill:#dbddda" d="M1151.897 531.464h8.504v17.008h-8.504z"/>
    <path transform="rotate(180 338.402 264.851) scale(.23192)" class="st9" style="fill:#2a2d2e" d="M1151.897 533.59h8.504v12.756h-8.504z"/>
    <path transform="rotate(180 338.402 272.74) scale(.23192)" class="st8" style="fill:#dbddda" d="M1151.897 565.479h8.504v17.008h-8.504z"/>
    <path transform="rotate(180 338.402 272.74) scale(.23192)" class="st9" style="fill:#2a2d2e" d="M1151.897 567.605h8.504v12.756h-8.504z"/>
    <path transform="rotate(180 387.099 255.994) scale(.23192)" class="st8" style="fill:#dbddda" d="M1361.865 493.274h8.504v17.008h-8.504z"/>
    <path transform="rotate(180 387.099 255.994) scale(.23192)" class="st9" style="fill:#2a2d2e" d="M1361.865 495.4h8.504v12.756h-8.504z"/>
    <path transform="rotate(90 238.175 354.505) scale(.23192)" class="st8" style="fill:#dbddda" d="M1322.812 617.194h6.378v12.756h-6.378z"/>
    <path transform="rotate(90 238.175 354.505) scale(.23192)" class="st4" style="fill:#9a916c" d="M1322.812 619.32h6.378v8.504h-6.378z"/>
    <path transform="rotate(90 202.616 356.026) scale(.23192)" class="st8" style="fill:#dbddda" d="M1169.49 623.755h6.378v12.756h-6.378z"/>
    <path transform="rotate(90 202.616 356.026) scale(.23192)" class="st4" style="fill:#9a916c" d="M1169.49 625.881h6.378v8.504h-6.378z"/>
    <path transform="rotate(90 202.616 370.644) scale(.23192)" class="st8" style="fill:#dbddda" d="M1169.49 686.782h6.378v12.756h-6.378z"/>
    <path transform="rotate(90 202.616 370.644) scale(.23192)" class="st4" style="fill:#9a916c" d="M1169.49 688.908h6.378v8.504h-6.378z"/>
    <path transform="rotate(135.001 320.671 330.826) scale(.23192)" class="st8" style="fill:#dbddda" d="M1325.879 692.57h6.378v12.756h-6.378z"/>
    <path transform="rotate(135.001 320.671 330.826) scale(.23192)" class="st4" style="fill:#9a916c" d="M1325.879 694.696h6.378v8.504h-6.378z"/>
    <path transform="rotate(-90 523.514 227.194) scale(.23192)" class="st8" style="fill:#dbddda" d="M1348.048 672.05h8.504v17.008h-8.504z"/>
    <path transform="rotate(-90 523.514 227.194) scale(.23192)" class="st9" style="fill:#2a2d2e" d="M1348.048 674.176h8.504v12.756h-8.504z"/>
    <path transform="rotate(-90 523.514 227.194) scale(.23192)" class="st8" style="fill:#dbddda" d="M1348.048 672.05h8.504v17.008h-8.504z"/>
    <path transform="rotate(-90 523.514 227.194) scale(.23192)" class="st9" style="fill:#2a2d2e" d="M1348.048 674.176h8.504v12.756h-8.504z"/>
    <path transform="rotate(-90 523.514 223.424) scale(.23192)" class="st8" style="fill:#dbddda" d="M1348.048 655.797h8.504v17.008h-8.504z"/>
    <path transform="rotate(-90 523.514 223.424) scale(.23192)" class="st9" style="fill:#2a2d2e" d="M1348.048 657.923h8.504v12.756h-8.504z"/>
    <path transform="rotate(-90 480.87 211.976) scale(.23192)" class="st8" style="fill:#dbddda" d="M1164.175 606.43h8.504v17.008h-8.504z"/>
    <path transform="rotate(-90 480.87 211.976) scale(.23192)" class="st4" style="fill:#9a916c" d="M1164.175 608.556h8.504v12.756h-8.504z"/>
    <path transform="rotate(-90 495.002 252.529) scale(.23192)" class="st8" style="fill:#dbddda" d="M1225.112 781.288h8.504v17.008h-8.504z"/>
    <path transform="rotate(-90 495.002 252.529) scale(.23192)" class="st9" style="fill:#2a2d2e" d="M1225.112 783.414h8.504v12.756h-8.504z"/>
    <path transform="rotate(-90 495.002 252.529) scale(.23192)" class="st8" style="fill:#dbddda" d="M1225.112 781.288h8.504v17.008h-8.504z"/>
    <path transform="rotate(-90 495.002 252.529) scale(.23192)" class="st9" style="fill:#2a2d2e" d="M1225.112 783.414h8.504v12.756h-8.504z"/>
    <path class="st12" d="m1301.913 936.633-1.239-1.858c0-14.244-6.503-19.817-14.244-24.152 2.167-.619 4.645-1.239 5.264-4.025 4.025-.929 4.645-2.787 5.264-4.645.929-.619 4.645-2.787 4.025-5.883 1.858-1.239 3.096-3.096 2.477-5.574 2.167-2.168 2.787-4.025 1.858-5.883 2.477-3.096 1.548-4.645.31-6.503 1.858-3.406.31-7.122-4.954-6.503-2.167-3.096-6.503-2.477-7.432-2.477-.929-.929-1.858-1.858-4.954-1.548-2.168-1.858-4.335-1.548-6.812-.619-2.787-2.168-4.645-.31-6.812.31-3.406-1.239-4.335.31-5.883.929-3.716-.929-4.954.929-6.812 2.787h-2.167c-5.574 3.406-8.36 9.909-9.599 13.315-.929-3.406-3.716-10.218-9.599-13.315h-2.167c-1.858-1.858-2.787-3.406-6.812-2.787-1.548-.619-2.477-2.168-5.883-.929-1.548-.31-2.787-1.239-4.335-1.239-.929 0-1.548.31-2.787.929-2.477-.929-4.645-1.239-6.812.619-3.096-.31-4.335.31-4.954 1.548-.619 0-5.264-.619-7.431 2.477-5.264-.619-6.812 3.096-4.954 6.503-.929 1.548-2.168 3.096.31 6.503-.929 1.858-.31 3.716 1.858 5.883-.619 2.477.619 4.025 2.477 5.574-.31 3.406 3.096 5.264 4.025 5.883.31 1.858 1.239 3.716 5.264 4.645.619 2.787 3.096 3.406 5.264 4.025-7.741 4.335-14.244 10.218-14.244 24.152l-1.239 1.858c-8.67 5.264-16.721 21.985-4.335 35.919.929 4.335 2.168 7.431 3.406 10.838 1.858 13.624 13.624 20.127 16.721 21.056 4.645 3.406 9.289 6.503 15.792 8.98 6.193 6.193 12.695 8.67 19.508 8.67h.31c6.812 0 13.315-2.477 19.508-8.67 6.502-2.167 11.457-5.574 15.792-8.98 3.096-.619 14.863-7.122 16.721-21.056 1.239-3.406 2.477-6.503 3.406-10.838 13.621-13.934 5.88-30.655-3.1-35.919zm-6.503-2.477c-.31 5.574-30.036-19.817-25.081-20.746 13.934-2.168 25.391 5.883 25.081 20.746zm-13.314 28.177c-7.432 4.954-18.269 1.858-23.843-6.812-5.883-8.67-4.335-19.508 3.096-24.462 7.431-4.954 18.269-1.858 23.843 6.812 5.883 8.98 4.335 19.818-3.096 24.462zm-20.437-87.629c.31 1.239.619 2.168.929 2.168 1.548-1.858 3.096-3.716 4.954-5.264 0 .929-.619 2.168.619 2.787 1.239-1.548 2.787-2.787 4.645-4.025-.929 1.548-.31 2.168.31 2.787 1.548-1.239 3.096-2.787 5.883-3.716-.929.929-1.858 1.858-.619 3.096 1.548-.929 3.096-1.858 7.122-2.787-.929.929-2.787 1.858-1.548 2.787 2.167-.619 4.335-1.239 6.812-1.548-1.239.929-2.168 1.858-1.239 2.787 2.167-.619 5.264-1.548 8.051-.929l-1.858 1.858c-.31.31 4.335.31 7.122.31-.929 1.548-2.167 3.096-2.787 5.574.31.31 1.858 0 3.096 0-1.548 3.096-4.025 3.716-4.335 4.954.929.619 2.168.619 3.406 0-.929 2.167-3.096 3.406-4.954 5.264.31.31 1.239.619 3.096.31-1.548 1.548-3.406 3.096-5.574 4.645.31.31 1.858.31 3.096.619-2.167 1.858-4.645 3.096-7.122 4.335 1.239.929 2.168.619 3.096.619-1.858 1.548-4.645 2.168-7.431 3.096.619.929.929.929 2.167 1.239-2.787 1.548-7.122.929-8.36 1.548.31.929.929 1.239 2.167 1.858-4.645.31-17.34-.31-19.817-9.909 4.645-5.264 13.624-11.457 28.487-18.888-11.767 4.025-22.294 8.98-30.964 16.411-10.836-4.956-3.714-17.032 1.55-21.986zm-10.528 34.99c7.432 0 16.411 5.264 16.411 10.528 0 4.645-6.503 8.36-16.411 8.051-9.909 0-16.411-4.645-16.411-8.98 0-3.716 8.051-9.909 16.411-9.599zm-37.467-4.026c1.239-.31 1.548-.31 2.167-1.239-2.787-.929-5.574-1.548-7.432-3.096.929 0 1.858.31 3.096-.619-2.477-1.239-4.954-2.477-7.122-4.335 1.239 0 2.787 0 3.097-.619a20.291 20.291 0 0 1-5.574-4.645c1.858.31 2.477 0 3.096-.31-1.548-1.858-3.716-3.096-4.954-5.264 1.239.31 2.477.619 3.406 0-.619-1.239-3.096-2.168-4.335-4.954 1.239 0 2.787.31 3.096 0-.619-2.477-1.858-4.025-2.787-5.574 3.096 0 7.431 0 7.122-.31l-1.858-1.858c2.787-.619 5.883 0 8.051.929.929-.619 0-1.548-1.239-2.787 2.477.31 4.645.929 6.812 1.548.929-.929-.619-1.858-1.548-2.787 3.716.619 5.574 1.858 7.122 2.787 1.239-1.239 0-2.168-.619-3.096 2.787.929 4.335 2.477 5.883 3.716.619-.619 1.239-1.239.31-2.787 2.167 1.239 3.716 2.477 4.645 4.025 1.239-.929.619-1.858.619-2.787 2.167 1.548 3.406 3.406 4.954 5.264.31-.31.619-.929.929-2.168 4.954 4.954 12.076 17.03 1.858 21.675-8.67-7.122-19.198-12.386-30.964-16.411 14.863 7.741 23.843 13.624 28.487 18.888-2.477 9.599-15.173 10.218-19.817 9.909.929-.31 1.858-.929 2.168-1.858-1.547-.308-5.572.312-8.669-1.237zm18.269 7.432c5.264.929-24.462 26.32-25.081 20.746-.31-14.863 11.147-22.914 25.081-20.746zm-31.274 56.665c-7.122-5.574-9.599-22.294 3.716-30.036 8.051-1.857 2.787 33.132-3.716 30.036zm27.558 30.035c-4.025 2.477-13.934 1.548-21.056-8.36-4.645-8.36-4.025-16.721-.929-19.198 4.954-3.096 12.695.929 18.579 7.741 5.264 5.883 7.741 16.721 3.406 19.817zm-8.05-36.538c-7.431-4.954-8.67-15.792-3.096-24.462 5.883-8.67 16.411-11.767 23.843-6.812 7.432 4.954 8.67 15.792 3.096 24.462s-16.412 11.767-23.843 6.812zm30.964 53.569c-8.98.31-17.65-7.122-17.65-9.909 0-3.716 10.838-6.812 17.959-6.812 7.122-.31 17.031 2.167 17.031 5.883.31 3.406-8.67 10.838-17.34 10.838zm17.96-38.086c0 8.98-8.051 16.411-17.959 16.411-9.909 0-17.959-7.122-17.959-16.411v-.31c0-8.98 8.051-16.411 17.959-16.411 9.908.309 17.959 7.431 17.959 16.721zm25.081 13.005c-7.741 10.528-17.959 10.838-21.985 8.051-4.025-3.716-.929-15.482 4.645-21.985 6.503-7.122 13.315-11.766 17.959-8.051 3.097 3.096 4.954 14.863-.619 21.985zm6.812-22.295c-6.503 2.787-11.767-31.893-3.716-30.036 13.315 7.742 11.147 24.463 3.716 30.036zm-82.667 89.092v-14.93h3.558c1.743 0 3.097.545 4.061 1.636.964 1.09 1.446 2.623 1.446 4.599v2.502c0 1.976-.489 3.502-1.467 4.578-.978 1.077-2.396 1.615-4.256 1.615zm1.876-13.32v11.711h1.507c1.32 0 2.283-.379 2.893-1.135.607-.756.919-1.876.933-3.361v-2.647c0-1.573-.303-2.729-.907-3.464-.605-.735-1.52-1.104-2.743-1.104zm19.368 6.42h-5.281v5.291h6.152v1.609h-8.029v-14.93h7.927v1.609h-6.05v4.81h5.281zm5.371 6.9v-14.93h4.255c1.36 0 2.384.332 3.071.994.687.664 1.03 1.658 1.03 2.984 0 .697-.175 1.312-.522 1.846a3.51 3.51 0 0 1-1.416 1.24c.684.205 1.226.626 1.626 1.262.399.636.6 1.401.6 2.297 0 1.34-.368 2.393-1.103 3.158-.735.765-1.782 1.148-3.143 1.148h-4.398zm1.876-8.562h2.409c.65 0 1.175-.219 1.574-.657.4-.438.6-1.021.6-1.747 0-.822-.181-1.42-.543-1.793-.362-.373-.916-.561-1.661-.561h-2.379zm0 1.58v5.373h2.563c.711 0 1.275-.234 1.691-.703.418-.468.626-1.126.626-1.974 0-1.798-.759-2.696-2.276-2.696zm20.577-7.947v10.613c-.014 1.414-.424 2.521-1.23 3.322-.807.799-1.932 1.199-3.373 1.199-1.477 0-2.605-.392-3.385-1.174-.779-.783-1.176-1.898-1.189-3.348v-10.613h1.867v10.533c0 1.004.213 1.754.641 2.249.427.495 1.115.743 2.066.743.957 0 1.648-.248 2.076-.743.427-.495.641-1.245.641-2.249v-10.533h1.886zm14.333 13.074-.328.41c-.943 1.101-2.324 1.65-4.143 1.65-1.613 0-2.88-.535-3.799-1.604-.92-1.07-1.39-2.582-1.41-4.538v-2.932c0-2.092.419-3.659 1.256-4.702.837-1.042 2.091-1.563 3.759-1.563 1.422 0 2.533.395 3.337 1.185.804.789 1.246 1.919 1.328 3.389h-1.876c-.076-.93-.334-1.656-.774-2.179-.441-.523-1.109-.785-2.005-.785-1.073 0-1.859.351-2.358 1.052-.499.7-.759 1.819-.779 3.358v3.045c0 1.504.287 2.657.861 3.461.574.803 1.397 1.205 2.472 1.205 1.012 0 1.78-.245 2.307-.735l.277-.255v-3.43h-2.729v-1.609h4.604zm-128.77-572.642h-14.93v-4.256c0-1.36.332-2.384.995-3.071.663-.687 1.657-1.03 2.983-1.03.697 0 1.312.175 1.846.523.534.348.947.82 1.241 1.415.205-.684.626-1.226 1.261-1.626.637-.399 1.402-.6 2.297-.6 1.34 0 2.393.368 3.158 1.103.766.735 1.148 1.782 1.148 3.143v4.399zm-8.562-1.877v-2.409c0-.649-.22-1.175-.657-1.574-.439-.4-1.021-.6-1.748-.6-.821 0-1.419.181-1.793.543-.373.362-.56.916-.56 1.661v2.379zm1.579 0h5.373v-2.563c0-.711-.234-1.274-.703-1.691-.467-.417-1.125-.626-1.973-.626-1.799 0-2.697.759-2.697 2.276zm.83-21.387c2.037 0 3.606.435 4.707 1.303 1.101.868 1.65 2.102 1.65 3.701 0 1.538-.534 2.753-1.604 3.646-1.07.892-2.583 1.355-4.538 1.39h-2.81c-1.996 0-3.56-.441-4.691-1.323-1.131-.882-1.697-2.112-1.697-3.691 0-1.572.543-2.797 1.625-3.676 1.084-.878 2.631-1.328 4.641-1.349h2.717zm-2.614 1.877c-1.579 0-2.753.258-3.522.773-.77.517-1.153 1.308-1.153 2.374 0 1.032.39 1.813 1.169 2.343s1.928.799 3.445.806h2.676c1.525 0 2.688-.265 3.486-.795.801-.529 1.2-1.321 1.2-2.374 0-1.053-.369-1.832-1.107-2.338s-1.87-.769-3.394-.789zm2.614-16.589c2.037 0 3.606.434 4.707 1.302 1.101.868 1.65 2.103 1.65 3.702 0 1.538-.534 2.753-1.604 3.646-1.07.892-2.583 1.354-4.538 1.389h-2.81c-1.996 0-3.56-.44-4.691-1.322-1.131-.882-1.697-2.112-1.697-3.691 0-1.572.543-2.798 1.625-3.676 1.084-.879 2.631-1.328 4.641-1.349h2.717zm-2.614 1.876c-1.579 0-2.753.259-3.522.774-.77.517-1.153 1.308-1.153 2.374 0 1.032.39 1.813 1.169 2.343s1.928.798 3.445.805h2.676c1.525 0 2.688-.265 3.486-.794.801-.53 1.2-1.321 1.2-2.374 0-1.053-.369-1.832-1.107-2.338s-1.87-.77-3.394-.79zm-4.553-15.327v3.928h13.319v1.876h-13.319v3.917h-1.61v-9.721zm9.546-10.662c-.744 0-1.315.202-1.712.605-.397.403-.782 1.131-1.159 2.184-.375 1.053-.77 1.858-1.184 2.415-.414.558-.885.975-1.416 1.251-.529.277-1.136.415-1.819.415-1.183 0-2.157-.395-2.923-1.184-.766-.79-1.148-1.824-1.148-3.103 0-.875.195-1.654.586-2.338a4 4 0 0 1 1.631-1.579 4.823 4.823 0 0 1 2.295-.554v1.887c-.922 0-1.637.223-2.143.667-.506.444-.759 1.083-.759 1.917 0 .759.212 1.347.637 1.764.425.417 1.021.626 1.788.626.629 0 1.156-.226 1.581-.677.425-.451.805-1.148 1.14-2.092.486-1.47 1.086-2.521 1.797-3.153.711-.632 1.641-.948 2.789-.948 1.209 0 2.178.393 2.906 1.179.728.786 1.092 1.856 1.092 3.21 0 .868-.189 1.67-.568 2.404a4.297 4.297 0 0 1-1.6 1.733c-.688.42-1.475.63-2.363.63v-1.887c.922 0 1.641-.258 2.152-.773.514-.517.77-1.219.77-2.107 0-.827-.212-1.449-.636-1.866-.424-.417-1.001-.626-1.734-.626zm-3.127-13.616v5.281h5.291v-6.152h1.609v8.028h-14.93v-7.926h1.61v6.05h4.81v-5.281zm5.291-7.258v-5.854h1.609v7.741h-14.93v-1.887zm-14.244-58.227h5.855v1.609h-7.742v-14.93h1.887zm17.348-5.291h-5.281v5.291h6.152v1.609h-8.028v-14.93h7.927v1.61h-6.051v4.809h5.281zm5.371 6.9v-14.93h3.559c1.742 0 3.096.546 4.061 1.636.963 1.091 1.445 2.623 1.445 4.599v2.502c0 1.976-.488 3.502-1.467 4.578-.977 1.077-2.396 1.615-4.255 1.615zm1.877-13.319v11.71h1.507c1.319 0 2.283-.378 2.892-1.134.608-.757.92-1.877.934-3.361v-2.648c0-1.573-.303-2.728-.908-3.464-.605-.735-1.52-1.103-2.742-1.103zm-41.436-61.036h-1.824v-12.643l-3.139 1.404v-1.723l4.676-2.04h.287zm2.944 43.207h-8.347v-1.363l4.255-5.64c.643-.868 1.089-1.581 1.338-2.139.25-.557.375-1.146.375-1.769 0-.793-.185-1.436-.554-1.928-.369-.492-.854-.738-1.456-.738-.759 0-1.346.262-1.758.784-.414.523-.621 1.277-.621 2.262h-1.814c0-1.374.375-2.485 1.127-3.333.752-.848 1.774-1.271 3.066-1.271 1.189 0 2.126.364 2.81 1.092.684.729 1.025 1.697 1.025 2.907 0 1.477-.769 3.224-2.308 5.24l-3.322 4.348h6.184zm243.457-8.388h1.158c.745 0 1.319-.229 1.723-.687.404-.458.605-1.084.605-1.877 0-1.75-.678-2.625-2.031-2.625-.648 0-1.158.236-1.527.708s-.554 1.09-.554 1.855h-1.805c0-1.196.364-2.182 1.092-2.958.729-.775 1.659-1.164 2.794-1.164 1.176 0 2.109.368 2.8 1.103.69.735 1.036 1.775 1.036 3.122 0 .69-.18 1.335-.539 1.933-.358.599-.825 1.038-1.399 1.318 1.408.52 2.112 1.685 2.112 3.496 0 1.333-.371 2.395-1.112 3.184-.742.79-1.711 1.185-2.907 1.185-1.183 0-2.138-.374-2.866-1.123-.728-.748-1.092-1.755-1.092-3.02h1.815c0 .793.191 1.424.574 1.892.383.469.905.703 1.568.703.677 0 1.215-.229 1.615-.688.399-.458.6-1.155.6-2.092 0-1.812-.857-2.717-2.574-2.717h-1.086zm16.117 2.01c-.725.923-1.572 1.385-2.543 1.385-1.088 0-1.952-.458-2.595-1.374-.643-.916-.964-2.116-.964-3.6 0-1.559.35-2.81 1.051-3.753.701-.943 1.656-1.415 2.866-1.415 1.258 0 2.24.546 2.948 1.636.707 1.091 1.061 2.6 1.061 4.527v.563c0 1.654-.125 2.994-.374 4.02-.249 1.026-.616 1.853-1.103 2.481a4.607 4.607 0 0 1-1.855 1.431c-.752.325-1.691.487-2.82.487v-1.61h.318c1.285-.027 2.261-.417 2.928-1.171.666-.754 1.027-1.956 1.082-3.607zm-2.236-.185c.438 0 .865-.183 1.282-.549.417-.365.741-.846.974-1.44v-.8c0-1.237-.215-2.247-.646-3.03-.431-.782-.95-1.174-1.559-1.174-.656 0-1.178.323-1.563.969-.387.646-.58 1.485-.58 2.518 0 1.033.188 1.875.564 2.527.376.653.885.979 1.528.979zm-140.299 22.782v10.613c-.014 1.415-.424 2.522-1.23 3.322-.806.8-1.931 1.199-3.373 1.199-1.477 0-2.604-.391-3.384-1.174-.779-.782-1.176-1.898-1.189-3.348V329.54h1.866v10.533c0 1.004.213 1.754.641 2.249.428.495 1.116.743 2.066.743.957 0 1.648-.248 2.076-.743.428-.495.641-1.245.641-2.249V329.54zm11.513 11.156c0-.745-.201-1.315-.605-1.712-.402-.396-1.131-.783-2.184-1.159-1.053-.376-1.857-.771-2.414-1.185-.559-.413-.975-.885-1.252-1.415-.277-.529-.415-1.136-.415-1.819 0-1.183.396-2.157 1.185-2.923s1.823-1.148 3.102-1.148c.875 0 1.654.195 2.338.586a4 4 0 0 1 1.579 1.631c.369.696.554 1.461.554 2.295h-1.887c0-.923-.223-1.637-.666-2.143-.445-.506-1.084-.759-1.918-.759-.759 0-1.347.212-1.764.637-.417.425-.625 1.021-.625 1.787 0 .63.225 1.157.676 1.582.451.425 1.148.805 2.092 1.14 1.471.486 2.521 1.085 3.154 1.796.631.711.947 1.641.947 2.789 0 1.21-.393 2.179-1.179 2.907-.786.728-1.856 1.092-3.21 1.092-.867 0-1.67-.189-2.404-.569a4.294 4.294 0 0 1-1.732-1.6c-.42-.687-.631-1.475-.631-2.363h1.887c0 .923.258 1.641.773 2.153.517.513 1.219.77 2.107.77.828 0 1.449-.212 1.867-.636.417-.425.625-1.003.625-1.734zm6.458 3.773v-14.93h4.255c1.361 0 2.385.332 3.072.995.686.663 1.029 1.657 1.029 2.983 0 .697-.174 1.312-.522 1.846-.348.534-.82.947-1.415 1.241.684.205 1.225.625 1.625 1.261.4.636.6 1.401.6 2.297 0 1.34-.367 2.393-1.102 3.158-.735.766-1.783 1.148-3.143 1.148h-4.399zm1.876-8.561h2.41c.649 0 1.174-.22 1.574-.658.4-.438.6-1.021.6-1.747 0-.821-.182-1.419-.543-1.793-.363-.373-.916-.56-1.662-.56h-2.379zm0 1.579v5.373h2.564c.711 0 1.274-.234 1.691-.703.417-.468.625-1.126.625-1.974 0-1.798-.758-2.696-2.275-2.696zm-117.455 686.87v3.75h8.627v2.695h-21.328v-5.977c0-2.09.545-3.672 1.634-4.746 1.089-1.074 2.683-1.611 4.782-1.611 1.318 0 2.469.291 3.45.872.981.581 1.722 1.403 2.22 2.468l9.066-4.131h.176v2.886zm-2.3 3.75v-3.252c0-1.123-.361-2.019-1.086-2.688-.723-.668-1.691-1.003-2.905-1.003-2.739 0-4.108 1.24-4.108 3.721v3.223h8.099zm10.927-25.52c-.342.156-.918.269-1.729.337 1.348.918 2.021 2.09 2.021 3.516 0 1.436-.402 2.557-1.208 3.361-.806.807-1.94 1.209-3.405 1.209-1.611 0-2.891-.547-3.838-1.641-.947-1.094-1.432-2.593-1.451-4.497v-1.904h-1.684c-.947 0-1.621.21-2.021.63-.4.42-.602 1.06-.602 1.919 0 .781.232 1.416.696 1.904.464.488 1.052.732 1.765.732v2.593c-.811 0-1.584-.239-2.321-.718a5.002 5.002 0 0 1-1.735-1.934c-.42-.811-.631-1.714-.631-2.71 0-1.621.403-2.854 1.209-3.699.806-.844 1.98-1.276 3.523-1.296h7.998c1.221-.01 2.279-.176 3.178-.498h.234v2.696zm-2.064 3.457c0-.635-.176-1.24-.527-1.816-.351-.576-.791-.996-1.318-1.26h-3.779v1.465c.02 1.23.295 2.202.827 2.915.532.713 1.276 1.069 2.233 1.069.898 0 1.551-.181 1.956-.542.405-.361.608-.972.608-1.831zm-1.992-21.873c-.557 0-1.035.21-1.436.63-.401.42-.869 1.23-1.406 2.432-.576 1.396-1.07 2.38-1.48 2.952-.41.57-.876.998-1.398 1.281-.522.283-1.145.425-1.867.425-1.289 0-2.361-.471-3.216-1.413-.855-.942-1.282-2.146-1.282-3.611 0-1.543.449-2.783 1.348-3.721.899-.938 2.051-1.406 3.457-1.406v2.578c-.713 0-1.32.239-1.823.718-.503.479-.755 1.089-.755 1.831 0 .762.197 1.36.592 1.795.395.435.922.651 1.584.651.526 0 .949-.158 1.271-.476.321-.317.744-1.082 1.27-2.293.754-1.924 1.49-3.232 2.209-3.926.719-.694 1.631-1.04 2.735-1.04 1.38 0 2.482.474 3.309 1.421.827.947 1.239 2.217 1.239 3.809 0 1.65-.473 2.988-1.42 4.014-.947 1.026-2.148 1.538-3.604 1.538v-2.607c.879-.029 1.566-.298 2.064-.806s.748-1.221.748-2.139c0-.859-.193-1.514-.579-1.963-.386-.449-.906-.674-1.56-.674zm-3.106-21.917c2.51 0 4.379.452 5.609 1.355 1.23.903 1.846 2.18 1.846 3.83 0 1.592-.6 2.817-1.801 3.677h7.602v2.578h-21.943v-2.344l1.758-.132c-1.367-.869-2.051-2.114-2.051-3.735 0-1.738.605-3.037 1.816-3.896s3.023-1.304 5.436-1.333zm-1.48 2.578c-1.777 0-3.088.273-3.933.82-.845.547-1.267 1.426-1.267 2.637 0 1.24.619 2.183 1.859 2.827h8.248c1.211-.635 1.816-1.587 1.816-2.856 0-1.172-.423-2.033-1.268-2.586-.845-.551-2.137-.832-3.875-.842zm1.48-21.903c2.471 0 4.33.444 5.58 1.333s1.875 2.178 1.875 3.867c0 1.68-.723 2.939-2.168 3.779l1.875.132v2.358h-22.5v-2.578h8.395c-1.357-.85-2.037-2.07-2.037-3.662 0-1.738.615-3.042 1.846-3.911 1.231-.869 3.086-1.309 5.566-1.318zm-1.486 2.578c-1.873 0-3.207.262-4.002.783-.795.523-1.191 1.37-1.191 2.542 0 1.338.721 2.334 2.164 2.988h7.535c1.424-.645 2.137-1.65 2.137-3.018 0-1.172-.41-2.012-1.229-2.52-.819-.508-2.093-.767-3.818-.776h-1.596zm8.941-16.057c0 1.973-.588 3.486-1.765 4.541-1.177 1.055-2.903 1.592-5.179 1.611h-1.918c-2.363 0-4.217-.515-5.56-1.546-1.343-1.029-2.015-2.468-2.015-4.313 0-1.855.592-3.242 1.773-4.16 1.181-.918 3.021-1.387 5.521-1.406h1.699v8.848h.367c1.699 0 2.934-.319 3.705-.96.771-.639 1.158-1.56 1.158-2.761 0-.762-.145-1.433-.433-2.015-.288-.58-.745-1.125-1.37-1.633l1.641-1.348c1.585 1.123 2.376 2.837 2.376 5.142zm-14.209.293c0 1.074.369 1.87 1.106 2.388.737.518 1.882.811 3.435.879v-6.24h-.352c-1.504.068-2.578.34-3.223.812-.643.474-.966 1.194-.966 2.161zm.498-19.72a6.338 6.338 0 0 0-.102 1.172c0 1.328.727 2.256 2.182 2.783h11.338v2.593h-15.85v-2.52l1.611-.044c-1.27-.693-1.904-1.675-1.904-2.944 0-.41.068-.752.205-1.025zm0-13.626a6.338 6.338 0 0 0-.102 1.172c0 1.328.727 2.256 2.182 2.783h11.338v2.593h-15.85v-2.52l1.611-.044c-1.27-.693-1.904-1.675-1.904-2.944 0-.41.068-.752.205-1.025zm9.112-11.414-11.543-2.886v-2.754l18.092 5.186c1.357.391 2.39.942 3.098 1.655.708.713 1.062 1.523 1.062 2.432 0 .352-.078.801-.234 1.348h-2.197l.059-.571c0-.752-.179-1.341-.535-1.765-.356-.426-.975-.77-1.854-1.033l-1.771-.513-15.719 4.658v-2.827zm-4.043-27.076h8.35v2.681h-21.328v-6.797c0-1.982.594-3.54 1.78-4.673s2.767-1.699 4.739-1.699c2.051 0 3.63.54 4.738 1.619 1.108 1.079 1.682 2.6 1.721 4.562zm-2.299 0v-4.116c0-1.191-.357-2.104-1.072-2.739-.713-.635-1.736-.952-3.066-.952-1.281 0-2.309.327-3.082.981-.771.654-1.158 1.553-1.158 2.695v4.131zm-9.404-21.082c.439 0 .805.122 1.098.366.293.244.439.615.439 1.113 0 .488-.146.854-.439 1.099-.293.245-.658.366-1.098.366-.44 0-.811-.122-1.113-.366-.302-.244-.455-.61-.455-1.099s.154-.857.462-1.105c.307-.25.676-.374 1.106-.374zm20.052.205v2.593h-15.85v-2.593zm-8.349-22.989h8.35v2.681h-21.328v-6.797c0-1.982.594-3.54 1.78-4.673s2.767-1.699 4.739-1.699c2.051 0 3.63.54 4.738 1.619 1.108 1.079 1.682 2.6 1.721 4.562zm-2.299 0v-4.116c0-1.191-.357-2.104-1.072-2.739-.713-.635-1.736-.952-3.066-.952-1.281 0-2.309.327-3.082.981-.771.654-1.158 1.553-1.158 2.695v4.131zm-9.404-21.082c.439 0 .805.122 1.098.366.293.244.439.615.439 1.113 0 .488-.146.854-.439 1.099-.293.245-.658.366-1.098.366-.44 0-.811-.122-1.113-.366-.302-.244-.455-.61-.455-1.099s.154-.857.462-1.105c.307-.25.676-.374 1.106-.374zm20.052.205v2.593h-15.85v-2.593zm-1.918-14.08c0-.859-.267-1.548-.799-2.065-.532-.517-1.291-.801-2.277-.85v-2.446c1.523.059 2.785.599 3.786 1.619s1.501 2.268 1.501 3.742c0 1.963-.617 3.46-1.853 4.49-1.236 1.03-3.073 1.545-5.515 1.545h-1.744c-2.393 0-4.211-.513-5.456-1.538s-1.868-2.52-1.868-4.482c0-1.621.514-2.907 1.539-3.86 1.025-.951 2.426-1.457 4.203-1.516v2.446c-1.172.059-2.051.34-2.637.843-.586.503-.879 1.198-.879 2.087 0 1.152.379 2.007 1.136 2.563.757.556 1.999.845 3.728.864h2.021c1.865 0 3.184-.275 3.955-.827.771-.552 1.159-1.424 1.159-2.615zm-6.738-12.308c-2.305 0-4.129-.559-5.472-1.677-1.343-1.118-2.015-2.596-2.015-4.432 0-1.836.654-3.312 1.963-4.432 1.309-1.117 3.092-1.691 5.348-1.721h1.67c2.295 0 4.111.557 5.449 1.67s2.006 2.598 2.006 4.453c0 1.836-.648 3.309-1.947 4.416-1.299 1.109-3.057 1.683-5.273 1.722h-1.729zm1.494-2.593c1.631 0 2.912-.319 3.845-.959.933-.64 1.399-1.502 1.399-2.586 0-2.285-1.65-3.462-4.951-3.53h-1.787c-1.621 0-2.903.322-3.846.967-.943.645-1.414 1.509-1.414 2.593 0 1.064.472 1.917 1.414 2.557.942.64 2.219.959 3.83.959h1.51zm-1.787-28.81c-2.762 0-5.326-.639-7.691-1.917s-4.228-3.049-5.588-5.312c-1.36-2.262-2.041-4.706-2.041-7.331s.681-5.065 2.041-7.321c1.36-2.256 3.223-4.022 5.588-5.301s4.93-1.918 7.691-1.918c2.693 0 5.215.615 7.566 1.846s4.242 2.978 5.671 5.24c1.429 2.262 2.144 4.747 2.144 7.454 0 2.693-.708 5.172-2.123 7.435a14.616 14.616 0 0 1-5.65 5.26c-2.351 1.244-4.887 1.865-7.608 1.865zm-.011-2.359c2.35 0 4.525-.547 6.526-1.641 2.002-1.094 3.569-2.58 4.703-4.461a11.598 11.598 0 0 0 1.701-6.101c0-2.188-.567-4.218-1.701-6.091-1.134-1.873-2.701-3.356-4.703-4.45-2.001-1.094-4.177-1.641-6.526-1.641-2.322 0-4.474.54-6.454 1.62-1.981 1.08-3.542 2.561-4.684 4.439a11.588 11.588 0 0 0-1.711 6.122c0 2.188.564 4.225 1.691 6.111 1.127 1.886 2.688 3.374 4.682 4.46 1.996 1.09 4.154 1.633 6.476 1.633zm2.718-18.723c2.092 0 3.688.592 4.788 1.774s1.651 2.854 1.651 5.014c0 2.146-.722 3.865-2.164 5.158-1.442 1.291-3.408 1.938-5.896 1.938h-2.256c-2.406 0-4.33-.652-5.772-1.959-1.442-1.305-2.163-3.018-2.163-5.137 0-2.188.561-3.869 1.682-5.045 1.121-1.176 2.699-1.764 4.736-1.764v2.994c-1.359 0-2.332.325-2.917.975-.585.65-.876 1.596-.876 2.84 0 1.285.473 2.297 1.419 3.035.946.738 2.263 1.107 3.95 1.107h2.324c1.646 0 2.942-.369 3.889-1.107.947-.738 1.42-1.75 1.42-3.035 0-1.258-.289-2.205-.866-2.84-.577-.637-1.56-.954-2.948-.954v-2.994zm6.242-29.987v11.924h-1.947l-8.057-6.079c-1.24-.918-2.259-1.555-3.055-1.912a6.138 6.138 0 0 0-2.527-.534c-1.133 0-2.051.264-2.754.791-.703.527-1.055 1.221-1.055 2.08 0 1.084.374 1.922 1.121 2.513s1.824.886 3.23.886v2.593c-1.963 0-3.551-.537-4.762-1.611-1.211-1.074-1.816-2.534-1.816-4.38 0-1.699.521-3.037 1.561-4.014 1.04-.977 2.424-1.465 4.152-1.465 2.109 0 4.605 1.099 7.486 3.296l6.211 4.746v-8.833h2.212zm-9.095-18.782c3.145 0 5.495.459 7.053 1.377 1.558.918 2.336 2.358 2.336 4.321 0 1.904-.746 3.325-2.24 4.263-1.494.938-3.74 1.426-6.738 1.465h-3.662c-3.115 0-5.439-.462-6.973-1.384-1.533-.924-2.301-2.361-2.301-4.314 0-1.924.729-3.348 2.184-4.27 1.455-.924 3.656-1.409 6.605-1.458zm-3.707 2.593c-2.256 0-3.918.249-4.987.747s-1.604 1.294-1.604 2.388c0 1.064.525 1.846 1.575 2.344 1.05.498 2.634.757 4.753.776h4.395c2.246 0 3.934-.259 5.062-.776 1.128-.517 1.692-1.309 1.692-2.373 0-1.055-.533-1.831-1.598-2.329-1.065-.498-2.689-.757-4.877-.776h-4.411zm12.802-22.43v11.924h-1.947l-8.057-6.079c-1.24-.918-2.259-1.555-3.055-1.911a6.123 6.123 0 0 0-2.527-.535c-1.133 0-2.051.264-2.754.791-.703.527-1.055 1.221-1.055 2.08 0 1.084.374 1.922 1.121 2.513s1.824.886 3.23.886v2.593c-1.963 0-3.551-.537-4.762-1.611-1.211-1.074-1.816-2.534-1.816-4.38 0-1.699.521-3.037 1.561-4.014 1.04-.977 2.424-1.465 4.152-1.465 2.109 0 4.605 1.099 7.486 3.296l6.211 4.746v-8.833h2.212zm-9.095-18.782c3.145 0 5.495.459 7.053 1.377 1.558.918 2.336 2.358 2.336 4.321 0 1.904-.746 3.325-2.24 4.263-1.494.938-3.74 1.426-6.738 1.465h-3.662c-3.115 0-5.439-.461-6.973-1.384-1.534-.923-2.301-2.361-2.301-4.314 0-1.924.729-3.347 2.184-4.27 1.455-.923 3.656-1.409 6.605-1.458zm-3.707 2.593c-2.256 0-3.918.249-4.987.747s-1.604 1.294-1.604 2.388c0 1.064.525 1.846 1.575 2.344 1.05.498 2.634.757 4.753.776h4.395c2.246 0 3.934-.259 5.062-.776 1.128-.517 1.692-1.309 1.692-2.373 0-1.055-.533-1.831-1.598-2.329-1.065-.498-2.689-.757-4.877-.776h-4.411z" style="fill:#fff" transform="translate(140.526 279.24) scale(.23192)"/>
    <path class="st16" d="M1203.792 706.013h-1.65v3.796h-1.186v-9.385h2.63c.919 0 1.616.24 2.089.719.473.479.709 1.181.709 2.104 0 .58-.129 1.086-.385 1.519a2.414 2.414 0 0 1-1.086.976l1.818 3.99v.077h-1.27zm-1.651-1.012h1.432c.494 0 .889-.159 1.183-.478.294-.319.441-.744.441-1.278 0-1.205-.546-1.808-1.638-1.808h-1.418zm8.32 1.134v3.674h-1.18v-9.385h2.99c.873 0 1.558.262 2.057.783.498.522.747 1.218.747 2.085 0 .902-.237 1.598-.712 2.085-.475.488-1.145.74-2.008.758zm0-1.011h1.811c.524 0 .926-.157 1.205-.472.279-.315.42-.764.42-1.35 0-.563-.145-1.016-.433-1.355-.288-.339-.683-.51-1.187-.51h-1.816zm12.445 4.685h-5.247v-.857l2.676-3.545c.403-.546.684-.993.841-1.344.157-.35.235-.721.235-1.111 0-.499-.116-.902-.348-1.212a1.089 1.089 0 0 0-.916-.464c-.477 0-.846.164-1.105.492-.26.329-.39.803-.39 1.422h-1.141c0-.864.236-1.562.709-2.095.473-.533 1.114-.8 1.927-.8.748 0 1.336.229 1.766.687.43.458.645 1.067.645 1.827 0 .929-.482 2.026-1.449 3.294l-2.088 2.732h3.886v.974zm4.8-3.5h-2.662v-.973h2.662zm7.211-3.435c0 .469-.104.886-.312 1.251-.208.365-.488.65-.841.857.417.215.743.522.979.925.236.401.355.858.355 1.369 0 .808-.229 1.453-.688 1.938-.457.482-1.064.725-1.82.725s-1.363-.242-1.82-.725c-.458-.484-.688-1.13-.688-1.938 0-.516.117-.977.352-1.383.234-.405.554-.712.957-.918a2.222 2.222 0 0 1-.831-.854 2.523 2.523 0 0 1-.303-1.248c0-.79.214-1.418.642-1.882.428-.464.991-.696 1.691-.696.696 0 1.258.23 1.686.69.428.46.641 1.09.641 1.889zm-.96 4.377c0-.537-.126-.968-.38-1.293a1.209 1.209 0 0 0-.999-.486c-.421 0-.753.163-.996.49-.243.326-.364.756-.364 1.289 0 .541.119.962.357 1.263.238.301.577.451 1.016.451.439 0 .775-.15 1.012-.451.237-.301.354-.722.354-1.263zm-.174-4.358c0-.477-.112-.865-.335-1.166-.224-.301-.51-.451-.857-.451-.365 0-.655.147-.87.444-.215.297-.322.688-.322 1.173 0 .49.109.879.329 1.167.219.288.506.432.863.432.365 0 .655-.146.87-.438.215-.292.322-.679.322-1.161zm9.157 2.913c0 1.384-.201 2.419-.605 3.104-.404.686-1.037 1.028-1.901 1.028-.838 0-1.463-.329-1.876-.986-.412-.657-.627-1.646-.645-2.965v-1.611c0-1.37.203-2.394.609-3.067.406-.675 1.039-1.013 1.898-1.013.846 0 1.473.32 1.879.961.406.64.619 1.609.641 2.906zm-1.141-1.63c0-.993-.109-1.725-.328-2.195-.219-.47-.57-.705-1.051-.705-.469 0-.812.23-1.031.692-.219.462-.333 1.159-.342 2.092v1.934c0 .988.113 1.73.342 2.227.228.496.576.744 1.044.744.464 0 .806-.233 1.024-.702.22-.469.334-1.184.342-2.146zm26.581 5.633h-5.247v-.857l2.676-3.545c.403-.546.684-.993.841-1.344.157-.35.235-.721.235-1.111 0-.499-.116-.902-.348-1.212a1.089 1.089 0 0 0-.916-.464c-.477 0-.846.164-1.105.492-.26.329-.39.803-.39 1.422h-1.141c0-.864.236-1.562.709-2.095.473-.533 1.114-.8 1.927-.8.748 0 1.336.229 1.766.687.43.458.645 1.067.645 1.827 0 .929-.482 2.026-1.449 3.294l-2.088 2.732h3.886v.974zm7.605-4.003c0 1.384-.203 2.419-.606 3.104-.403.686-1.038 1.028-1.901 1.028-.838 0-1.463-.329-1.875-.986-.413-.657-.628-1.646-.645-2.965v-1.611c0-1.37.203-2.394.608-3.067.406-.675 1.039-1.013 1.898-1.013.847 0 1.473.32 1.879.961.405.64.62 1.609.642 2.906zm-1.141-1.63c0-.993-.11-1.725-.33-2.195-.219-.471-.568-.705-1.05-.705-.468 0-.812.23-1.031.692-.219.462-.333 1.159-.342 2.092v1.934c0 .988.114 1.73.342 2.227.228.497.575.744 1.044.744.465 0 .806-.233 1.025-.702.219-.469.332-1.184.342-2.146zm4.374 6.439h-.967l3.294-10.19h.96zm11.046-.806h-5.246v-.857l2.675-3.545c.403-.546.685-.993.841-1.344.157-.35.236-.721.236-1.111 0-.499-.117-.902-.349-1.212a1.088 1.088 0 0 0-.915-.464c-.477 0-.846.164-1.105.492-.26.329-.391.803-.391 1.422h-1.141c0-.864.236-1.562.709-2.095.473-.533 1.115-.8 1.928-.8.748 0 1.336.229 1.766.687.43.458.645 1.067.645 1.827 0 .929-.483 2.026-1.45 3.294l-2.088 2.732h3.886v.974zm5.986 0h-1.146v-7.947l-1.973.883v-1.082l2.939-1.283h.18zm-94.291 11.326v3.674h-1.18v-9.385h2.991c.872 0 1.558.262 2.056.783.499.522.748 1.218.748 2.085 0 .902-.237 1.598-.712 2.085-.476.488-1.144.74-2.008.758zm0-1.011h1.812c.524 0 .926-.157 1.206-.472.279-.314.418-.764.418-1.35 0-.563-.144-1.016-.432-1.355-.287-.34-.684-.51-1.186-.51h-1.818zm11.169-4.705v1.012h-.187c-.762.018-1.356.273-1.786.771-.43.496-.677 1.242-.741 2.239.417-.524.949-.786 1.599-.786.692 0 1.241.285 1.647.854.405.569.608 1.315.608 2.239 0 .984-.225 1.762-.673 2.333-.449.571-1.053.857-1.809.857-.761 0-1.373-.337-1.837-1.012-.464-.675-.696-1.57-.696-2.688v-.458c0-1.289.14-2.316.419-3.081.279-.765.69-1.333 1.234-1.705.544-.371 1.22-.563 2.027-.576h.195zm-1.308 4.227c-.31 0-.595.118-.857.354a2.003 2.003 0 0 0-.567.902v.471c0 .761.135 1.381.403 1.859.269.479.599.719.989.719.426 0 .758-.196.999-.59.241-.393.36-.912.36-1.557 0-.636-.119-1.154-.36-1.557-.242-.4-.564-.601-.967-.601zm9.493 2.012h1.044v.973h-1.044v2.179h-1.141v-2.179h-3.545v-.702l3.486-6.504h1.199v6.233zm-3.423 0h2.282v-4.461zm8.72-6.234 2.449 7.657 2.449-7.657h1.521v9.385h-1.18v-3.654l.11-3.661-2.457 7.315h-.902l-2.441-7.29.109 3.636v3.654h-1.18v-9.385zm12.908 9.385h-1.148v-7.947l-1.972.883v-1.082l2.938-1.283h.182zm4.903-4.705.405-4.68h4.08v1.103h-3.119l-.219 2.559a2.135 2.135 0 0 1 1.25-.406c.73 0 1.305.284 1.721.852.417.566.625 1.329.625 2.288 0 .971-.227 1.733-.68 2.288-.453.554-1.075.831-1.865.831-.705 0-1.279-.229-1.721-.689-.443-.46-.697-1.096-.762-1.908h1.07c.064.537.219.942.461 1.215.242.273.56.409.951.409.441 0 .788-.191 1.037-.576.249-.385.374-.903.374-1.557 0-.614-.134-1.115-.403-1.502-.268-.387-.631-.58-1.086-.58-.378 0-.681.099-.908.297l-.303.303zm7.546 4.08c0-.206.061-.378.184-.516s.307-.206.551-.206c.245 0 .432.068.558.206.127.138.19.31.19.516a.69.69 0 0 1-.19.496c-.126.133-.312.2-.558.2-.244 0-.428-.067-.551-.2a.704.704 0 0 1-.184-.496zm9.635-3.378c0 1.384-.202 2.419-.605 3.104-.404.686-1.038 1.028-1.902 1.028-.838 0-1.463-.329-1.875-.986-.412-.657-.627-1.646-.645-2.965v-1.611c0-1.37.203-2.394.609-3.067.406-.675 1.039-1.013 1.898-1.013.846 0 1.473.32 1.879.961.405.64.619 1.609.641 2.906zm-1.141-1.63c0-.993-.109-1.725-.329-2.195-.219-.471-.569-.705-1.05-.705-.469 0-.812.23-1.031.692-.22.462-.334 1.159-.342 2.092v1.934c0 .988.113 1.73.342 2.227.227.496.575.744 1.043.744.465 0 .807-.233 1.025-.702.218-.469.333-1.184.342-2.146zm8.977 1.63c0 1.384-.202 2.419-.605 3.104-.404.686-1.038 1.028-1.902 1.028-.838 0-1.463-.329-1.875-.986-.412-.657-.627-1.646-.645-2.965v-1.611c0-1.37.203-2.394.609-3.067.406-.675 1.039-1.013 1.898-1.013.846 0 1.473.32 1.879.961.405.64.619 1.609.641 2.906zm-1.141-1.63c0-.993-.109-1.725-.329-2.195-.219-.471-.569-.705-1.05-.705-.469 0-.812.23-1.031.692-.22.462-.334 1.159-.342 2.092v1.934c0 .988.113 1.73.342 2.227.227.496.575.744 1.043.744.465 0 .807-.233 1.025-.702.218-.469.333-1.184.342-2.146zm13.791-2.739h-2.469v8.372h-1.18v-8.372h-2.463v-1.013h6.111v1.013zm8.293 0h-2.469v8.372h-1.18v-8.372h-2.462v-1.013h6.11v1.013zm8.293 0h-2.469v8.372h-1.18v-8.372h-2.461v-1.013h6.109v1.013zm-27.693-55.747-.501-.752c0-5.766-2.632-8.022-5.766-9.777.877-.251 1.88-.501 2.131-1.63 1.63-.376 1.88-1.128 2.131-1.88.376-.251 1.88-1.128 1.63-2.382.752-.501 1.254-1.253 1.003-2.256.877-.877 1.128-1.63.752-2.382 1.003-1.254.627-1.88.125-2.632.752-1.379.125-2.883-2.006-2.632-.877-1.253-2.632-1.003-3.008-1.003-.376-.376-.752-.752-2.006-.627-.877-.752-1.755-.627-2.758-.251-1.128-.877-1.88-.125-2.758.125-1.379-.501-1.755.125-2.382.376-1.504-.376-2.006.376-2.758 1.128h-.877c-2.256 1.379-3.385 4.011-3.886 5.39-.376-1.379-1.504-4.137-3.886-5.39h-.877c-.752-.752-1.128-1.379-2.758-1.128-.627-.251-1.003-.877-2.382-.376-.627-.125-1.128-.501-1.755-.501-.376 0-.627.125-1.128.376-1.003-.376-1.88-.501-2.758.251-1.254-.125-1.755.125-2.006.627-.251 0-2.131-.251-3.008 1.003-2.131-.251-2.758 1.254-2.006 2.632-.376.627-.877 1.253.125 2.632-.376.752-.125 1.504.752 2.382-.251 1.003.251 1.63 1.003 2.256-.125 1.379 1.253 2.131 1.63 2.382.125.752.501 1.504 2.131 1.88.251 1.128 1.254 1.379 2.131 1.63-3.134 1.755-5.766 4.137-5.766 9.777l-.501.752c-3.51 2.131-6.769 8.9-1.755 14.541.376 1.755.877 3.008 1.379 4.387.752 5.515 5.516 8.148 6.769 8.524 1.88 1.379 3.76 2.632 6.393 3.635 2.507 2.507 5.139 3.51 7.897 3.51h.125c2.758 0 5.39-1.003 7.897-3.51 2.632-.878 4.638-2.256 6.393-3.635 1.253-.251 6.017-2.883 6.769-8.524.501-1.379 1.003-2.632 1.379-4.387 5.516-5.641 2.382-12.41-1.253-14.541zm-2.633-1.003c-.125 2.256-12.159-8.022-10.153-8.398 5.641-.878 10.279 2.381 10.153 8.398zm-5.39 11.407c-3.008 2.006-7.396.752-9.652-2.758-2.382-3.51-1.755-7.897 1.253-9.903 3.008-2.006 7.396-.752 9.652 2.758 2.382 3.636 1.756 8.023-1.253 9.903zm-8.273-35.474c.125.501.251.877.376.877.627-.752 1.254-1.504 2.006-2.131 0 .376-.251.878.251 1.128.501-.627 1.128-1.128 1.88-1.63-.376.627-.125.878.125 1.128.627-.501 1.253-1.128 2.382-1.504-.376.376-.752.752-.251 1.254.627-.376 1.254-.752 2.883-1.128-.376.376-1.128.752-.627 1.128.877-.251 1.755-.501 2.758-.627-.501.376-.877.752-.501 1.128.877-.251 2.131-.627 3.259-.376l-.752.752c-.125.125 1.755.125 2.883.125-.376.627-.877 1.253-1.128 2.256.125.125.752 0 1.253 0-.627 1.253-1.63 1.504-1.755 2.006.376.251.877.251 1.379 0-.376.877-1.254 1.379-2.006 2.131.125.125.501.251 1.253.125a17.863 17.863 0 0 1-2.256 1.88c.125.125.752.125 1.253.251-.877.752-1.88 1.254-2.883 1.755.501.376.877.251 1.254.251-.752.627-1.88.877-3.008 1.254.251.376.376.376.877.501-1.128.627-2.883.376-3.384.627.125.376.376.501.877.752-1.88.125-7.02-.125-8.022-4.011 1.88-2.131 5.515-4.638 11.532-7.646-4.763 1.63-9.025 3.635-12.535 6.644-4.387-2.006-1.504-6.895.627-8.9zm-4.262 14.164c3.008 0 6.644 2.131 6.644 4.262 0 1.88-2.632 3.384-6.644 3.259-4.011 0-6.644-1.88-6.644-3.635 0-1.504 3.26-4.011 6.644-3.886zm-15.167-1.629c.501-.125.627-.125.877-.501-1.128-.376-2.256-.627-3.008-1.253.376 0 .752.125 1.254-.251-1.003-.501-2.006-1.003-2.883-1.755.501 0 1.128 0 1.253-.251a8.197 8.197 0 0 1-2.256-1.88c.752.125 1.003 0 1.253-.125-.627-.752-1.504-1.254-2.006-2.131.501.125 1.003.251 1.379 0-.251-.501-1.254-.877-1.755-2.006.501 0 1.128.125 1.254 0-.251-1.003-.752-1.63-1.128-2.256 1.253 0 3.008 0 2.883-.125l-.752-.752c1.128-.251 2.382 0 3.259.376.376-.251 0-.627-.501-1.128 1.003.125 1.88.376 2.758.627.376-.376-.251-.752-.627-1.128 1.504.251 2.256.752 2.883 1.128.501-.501 0-.878-.251-1.254 1.128.376 1.755 1.003 2.382 1.504.251-.251.501-.501.125-1.128.877.501 1.504 1.003 1.88 1.63.501-.376.251-.752.251-1.128.877.627 1.379 1.379 2.006 2.131.125-.125.251-.376.376-.877 2.006 2.006 4.889 6.894.752 8.775-3.51-2.883-7.772-5.014-12.535-6.644 6.017 3.134 9.652 5.515 11.532 7.646-1.003 3.886-6.142 4.137-8.022 4.011.376-.125.752-.376.877-.752-.627-.127-2.257.124-3.51-.503zm7.395 3.008c2.131.376-9.903 10.655-10.153 8.398-.125-6.016 4.512-9.275 10.153-8.398zm-12.66 22.94c-2.883-2.256-3.886-9.025 1.504-12.159 3.259-.753 1.128 13.412-1.504 12.159zm11.156 12.159c-1.63 1.003-5.641.627-8.524-3.384-1.88-3.385-1.63-6.769-.376-7.772 2.006-1.253 5.139.376 7.521 3.134 2.131 2.381 3.134 6.768 1.379 8.022zm-3.259-14.792c-3.008-2.006-3.51-6.393-1.254-9.903 2.382-3.51 6.644-4.763 9.652-2.758 3.008 2.005 3.51 6.393 1.253 9.903-2.255 3.51-6.643 4.764-9.651 2.758zm12.535 21.686c-3.635.125-7.145-2.883-7.145-4.011 0-1.504 4.387-2.758 7.27-2.758 2.883-.125 6.894.877 6.894 2.382.126 1.378-3.509 4.387-7.019 4.387zm7.27-15.418c0 3.635-3.259 6.644-7.27 6.644-4.011 0-7.27-2.883-7.27-6.644v-.125c0-3.635 3.259-6.644 7.27-6.644 4.011.125 7.27 3.008 7.27 6.769zm10.154 5.264c-3.134 4.262-7.27 4.387-8.9 3.259-1.63-1.504-.376-6.268 1.88-8.9 2.632-2.883 5.39-4.763 7.27-3.259 1.254 1.254 2.006 6.017-.25 8.9zm2.757-9.025c-2.632 1.128-4.763-12.911-1.504-12.159 5.39 3.134 4.513 9.903 1.504 12.159z" style="fill:#3d3f38" transform="translate(140.526 279.24) scale(.23192)"/>
    <path pointer-events="none" d="M529 299h2v2h-2z"/>
    <path d="M530 295v4" fill="#fff" stroke="#000" stroke-width="2" stroke-linecap="square" stroke-miterlimit="10" pointer-events="none"/>
    <path fill="none" pointer-events="none" d="M515.5 270h29v16h-29z"/>
    <text x="530" y="283" font-family="Arial, Helvetica" font-weight="bold" text-anchor="middle" font-size="12">GND</text>
    <path d="M470 360h60v-60" fill="none" stroke="#000" stroke-width="2" stroke-miterlimit="10" pointer-events="none"/>
    <path pointer-events="none" d="M359 299h2v2h-2z"/>
    <path d="M360 295v4" fill="#fff" stroke="#000" stroke-width="2" stroke-linecap="square" stroke-miterlimit="10" pointer-events="none"/>
    <path fill="none" pointer-events="none" d="M337 270h46v16h-46z"/>
    <text x="360" y="283" style="fill:#56a9de;fill-opacity:1" font-family="Arial, Helvetica" font-weight="bold" text-anchor="middle" font-size="12">SWCLK</text>
    <path d="M360 300v70h30" fill="none" stroke="#000" stroke-width="2" stroke-miterlimit="10" pointer-events="none"/>
    <path pointer-events="none" d="M299 299h2v2h-2z"/>
    <path d="M300 295v4" fill="#fff" stroke="#000" stroke-width="2" stroke-linecap="square" stroke-miterlimit="10" pointer-events="none"/>
    <path fill="none" pointer-events="none" d="M278 270h44v16h-44z"/>
    <text x="300" y="283" style="fill:#833785;fill-opacity:1" font-family="Arial, Helvetica" font-weight="bold" text-anchor="middle" font-size="12">SWDIO</text>
    <path pointer-events="none" d="M359 309h2v2h-2zm0 60h2v2h-2z"/>
    <path d="M360 311v10m0 38v10" stroke="#000" stroke-width="2" stroke-linecap="square" stroke-miterlimit="10" pointer-events="none"/>
    <path d="M353 322c13.39-.18 14 0 14 0v36h-14z" fill="#fff" stroke="#000" stroke-width="2" stroke-linejoin="round" stroke-linecap="round" stroke-miterlimit="10" pointer-events="none"/>
    <path fill="none" pointer-events="none" d="M320 330h31v16h-31z"/>
    <text x="335.5" y="343" font-family="Arial, Helvetica" font-weight="bold" text-anchor="middle" font-size="12">100</text>
    <path pointer-events="none" d="M299 309h2v2h-2zm0 60h2v2h-2z"/>
    <path d="M300 311v10m0 38v10" stroke="#000" stroke-width="2" stroke-linecap="square" stroke-miterlimit="10" pointer-events="none"/>
    <path d="M293 322c13.39-.18 14 0 14 0v36h-14z" fill="#fff" stroke="#000" stroke-width="2" stroke-linejoin="round" stroke-linecap="round" stroke-miterlimit="10" pointer-events="none"/>
    <path fill="none" pointer-events="none" d="M260 330h27v13h-27z"/>
    <text x="273.5" y="341.5" font-family="Arial, Helvetica" font-weight="bold" text-anchor="middle" font-size="12">100</text>
    <path d="M300 370v10h90m-90-80v10" fill="none" stroke="#000" stroke-width="2" stroke-miterlimit="10" pointer-events="none"/>
    <path pointer-events="none" d="M489 299h2v2h-2z"/>
    <path d="M490 295v4" fill="#fff" stroke="#000" stroke-width="2" stroke-linecap="square" stroke-miterlimit="10" pointer-events="none"/>
    <path fill="none" pointer-events="none" d="M480 268h20v20h-20z"/>
    <text x="490" y="283" style="fill:#d23b2f;fill-opacity:1" font-family="Arial, Helvetica" font-weight="bold" text-anchor="middle" font-size="12">5V</text>
    <path d="M490 300v50h-20" fill="none" stroke="#000" stroke-width="2" stroke-miterlimit="10" pointer-events="none"/>
    <path pointer-events="none" d="M299 399h2v2h-2zm0 60h2v2h-2z"/>
    <path d="M300 401v10m0 38v10" stroke="#000" stroke-width="2" stroke-linecap="square" stroke-miterlimit="10" pointer-events="none"/>
    <path d="M293 412c13.39-.18 14 0 14 0v36h-14z" fill="#fff" stroke="#000" stroke-width="2" stroke-linejoin="round" stroke-linecap="round" stroke-miterlimit="10" pointer-events="none"/>
    <path fill="none" pointer-events="none" d="M260 420h27v13h-27z"/>
    <text x="273.5" y="431.5" font-family="Arial, Helvetica" font-weight="bold" text-anchor="middle" font-size="12">100</text>
    <path d="M300 400v-10h90" fill="none" stroke="#000" stroke-width="2" stroke-miterlimit="10" pointer-events="none"/>
    <path pointer-events="none" d="M301 581h-2v-2h2z"/>
    <path d="M300 585v-4" fill="#fff" stroke="#000" stroke-width="2" stroke-linecap="square" stroke-miterlimit="10" pointer-events="none"/>
    <path fill="none" pointer-events="none" d="M290 596.5h20v20h-20z"/>
    <text x="300" y="611.5" style="fill:#e1883d;fill-opacity:1" font-family="Arial, Helvetica" font-weight="bold" text-anchor="middle" font-size="12">TX</text>
    <path d="M300 460v120" fill="none" stroke="#000" stroke-width="2" stroke-miterlimit="10" pointer-events="none"/>
    <path pointer-events="none" d="M359 399h2v2h-2zm0 60h2v2h-2z"/>
    <path d="M360 401v10m0 38v10" stroke="#000" stroke-width="2" stroke-linecap="square" stroke-miterlimit="10" pointer-events="none"/>
    <path d="M353 412c13.39-.18 14 0 14 0v36h-14z" fill="#fff" stroke="#000" stroke-width="2" stroke-linejoin="round" stroke-linecap="round" stroke-miterlimit="10" pointer-events="none"/>
    <path fill="none" pointer-events="none" d="M320 420h27v13h-27z"/>
    <text x="333.5" y="431.5" font-family="Arial, Helvetica" font-weight="bold" text-anchor="middle" font-size="12">100</text>
    <path d="M360 400h30" fill="none" stroke="#000" stroke-width="2" stroke-miterlimit="10" pointer-events="none"/>
    <path pointer-events="none" d="M361 581h-2v-2h2z"/>
    <path d="M360 585v-4" fill="#fff" stroke="#000" stroke-width="2" stroke-linecap="square" stroke-miterlimit="10" pointer-events="none"/>
    <path fill="none" pointer-events="none" d="M350 596.5h20v20h-20z"/>
    <text x="360" y="611.5" style="fill:#f7d262;fill-opacity:1" font-family="Arial, Helvetica" font-weight="bold" text-anchor="middle" font-size="12">RX</text>
    <path d="M360 460v120" fill="none" stroke="#000" stroke-width="2" stroke-miterlimit="10" pointer-events="none"/>
    <path pointer-events="none" d="M491 581h-2v-2h2z"/>
    <path d="M490 585v-4" fill="#fff" stroke="#000" stroke-width="2" stroke-linecap="square" stroke-miterlimit="10" pointer-events="none"/>
    <path fill="none" pointer-events="none" d="M480 596.5h20v20h-20z"/>
    <text x="490" y="611.5" style="fill:#d23b2f;fill-opacity:1" font-family="Arial, Helvetica" font-weight="bold" text-anchor="middle" font-size="12">5V</text>
    <path pointer-events="none" d="M531 581h-2v-2h2z"/>
    <path d="M530 585v-4" fill="#fff" stroke="#000" stroke-width="2" stroke-linecap="square" stroke-miterlimit="10" pointer-events="none"/>
    <path fill="none" pointer-events="none" d="M518 600h24v13h-24z"/>
    <text x="530" y="611.5" font-family="Arial, Helvetica" font-weight="bold" text-anchor="middle" font-size="12">GND</text>
    <path d="M490 580V352" fill="none" stroke="#000" stroke-width="2" stroke-miterlimit="10" pointer-events="none"/>
    <circle cx="490" cy="350" stroke="#000" stroke-width="2" pointer-events="none" r="2"/>
    <path d="M530 362v218" fill="none" stroke="#000" stroke-width="2" stroke-miterlimit="10" pointer-events="none"/>
    <circle cx="530" cy="360" stroke="#000" stroke-width="2" pointer-events="none" r="2"/>
    <rect x="280" y="230" width="310" height="30" rx="4.5" ry="4.5" fill="url(#a)" pointer-events="none" style="fill:url(#a)"/>
    <text x="435" y="255" font-family="Arial, Helvetica" font-weight="bold" text-anchor="middle" font-size="22">SWD</text>
    <rect x="290" y="620" width="300" height="30" rx="4.5" ry="4.5" fill="url(#b)" pointer-events="none" style="fill:url(#b)"/>
    <text x="440" y="645" font-family="Arial, Helvetica" font-weight="bold" text-anchor="middle" font-size="22">UART</text>
    <path pointer-events="none" d="M459 556.329h2v2h-2zm-60 0h2v2h-2z"/>
    <circle cx="447.5" cy="557.328" fill="none" stroke="#000" stroke-width="2" pointer-events="none" r="2"/>
    <circle cx="412.5" cy="557.328" fill="none" stroke="#000" stroke-width="2" pointer-events="none" r="2"/>
    <path d="M450.5 557.329h8.5m-58 0h8.5m4.65-1.03 30.782-5.464" fill="none" stroke="#000" stroke-width="2" stroke-linecap="square" stroke-miterlimit="10" pointer-events="none"/>
    <path fill="none" pointer-events="none" d="M410 580h43v16h-43z"/>
    <text x="431.5" y="593" transform="translate(0 -46.2)" font-family="Arial, Helvetica" font-weight="bold" text-anchor="middle" font-size="12">RESET</text>
    <path d="M400 557.329h-20V510h10m70 47.329h20V440h-10" fill="none" stroke="#000" stroke-width="2" stroke-miterlimit="10" pointer-events="none"/>
    <path pointer-events="none" d="M569 299h2v2h-2z"/>
    <path d="M570 295v4" fill="#fff" stroke="#000" stroke-width="2" stroke-linecap="square" stroke-miterlimit="10" pointer-events="none"/>
    <path fill="none" pointer-events="none" d="M555 268h30v20h-30z"/>
    <text x="570" y="283" style="fill:#ff002f;fill-opacity:1" font-family="Arial, Helvetica" font-weight="bold" text-anchor="middle" font-size="12">3.3V</text>
    <path pointer-events="none" d="M571 581h-2v-2h2z"/>
    <path d="M570 585v-4" fill="#fff" stroke="#000" stroke-width="2" stroke-linecap="square" stroke-miterlimit="10" pointer-events="none"/>
    <path fill="none" pointer-events="none" d="M555 596.5h30v20h-30z"/>
    <text x="570" y="611.5" style="fill:#ff002f;fill-opacity:1" font-family="Arial, Helvetica" font-weight="bold" text-anchor="middle" font-size="12">3.3V</text>
    <path d="M570 300v280M470 380h98" fill="none" stroke="#000" stroke-width="2" stroke-miterlimit="10" pointer-events="none"/>
    <circle cx="570" cy="380" stroke="#000" stroke-width="2" pointer-events="none" r="2"/>
    <circle cx="300" cy="590" fill="#fff" stroke="#000" stroke-width="2" transform="rotate(180 300 590)" pointer-events="none" r="4.135" style="fill:#e1883d;fill-opacity:1;stroke:#e1883d;stroke-opacity:1"/>
    <circle cx="360" cy="590" fill="#fff" stroke="#000" stroke-width="2" transform="rotate(180 360 590)" pointer-events="none" r="4.135" style="fill:#f7d262;fill-opacity:1;stroke:#f7d262;stroke-opacity:1"/>
    <circle cx="490" cy="590" fill="#fff" stroke="#000" stroke-width="2" transform="rotate(180 490 590)" pointer-events="none" r="4.135" style="fill:#d23b2f;fill-opacity:1;stroke:#d23b2f;stroke-opacity:1"/>
    <circle cx="530" cy="590" fill="#fff" stroke="#000" stroke-width="2" transform="rotate(180 530 590)" pointer-events="none" r="4.135" style="fill:#000;fill-opacity:1"/>
    <circle cx="570" cy="590" fill="#fff" stroke="#000" stroke-width="2" transform="rotate(180 570 590)" pointer-events="none" r="4.135" style="fill:#ff002f;fill-opacity:1;stroke:#ff002f;stroke-opacity:1"/>
    <circle cx="530" cy="290" fill="#fff" stroke="#000" stroke-width="2" pointer-events="none" r="4.135" style="fill:#000;fill-opacity:1"/>
    <circle cx="360" cy="290" fill="#fff" stroke="#000" stroke-width="2" pointer-events="none" r="4.135" style="fill:#56a9de;fill-opacity:1;stroke:#56a9de;stroke-opacity:1"/>
    <circle cx="300" cy="290" fill="#fff" stroke="#000" stroke-width="2" pointer-events="none" r="4.135" style="fill:#833785;fill-opacity:1;stroke:#833785;stroke-opacity:1"/>
    <circle cx="490" cy="290" fill="#fff" stroke="#000" stroke-width="2" pointer-events="none" r="4.135" style="fill:#d23b2f;fill-opacity:1;stroke:#d23b2f;stroke-opacity:1"/>
    <circle cx="570" cy="290" fill="#fff" stroke="#000" stroke-width="2" pointer-events="none" r="4.135" style="fill:#ff002f;fill-opacity:1;stroke:#ff002f;stroke-opacity:1"/>
  </g>
  <text xml:space="preserve" style="font-weight:700;font-size:7.37336px;line-height:1.25;font-family:Helvetica;fill:#676767;fill-opacity:1;stroke-width:1.00005;stroke-dasharray:none" x="81.067" y="153.392"><tspan x="81.067" y="153.392" style="font-style:normal;font-variant:normal;font-weight:700;font-stretch:normal;font-size:7.37336px;font-family:Arial,Helvetica;fill:#676767;fill-opacity:1;stroke-width:1.00005;stroke-dasharray:none">4 GP2</tspan></text>
  <text xml:space="preserve" style="font-weight:700;font-size:7.37336px;line-height:1.25;font-family:Helvetica;fill:#676767;fill-opacity:1;stroke-width:1.00005;stroke-dasharray:none" x="21.013" y="163.191"><tspan x="21.013" y="163.191" style="font-style:normal;font-variant:normal;font-weight:700;font-stretch:normal;font-size:7.37336px;font-family:Arial,Helvetica;fill:#676767;fill-opacity:1;stroke-width:1.00005;stroke-dasharray:none">5 GP3</tspan></text>
  <text xml:space="preserve" style="font-weight:700;font-size:7.37336px;line-height:1.25;font-family:Helvetica;text-align:end;text-anchor:end;fill:#676767;fill-opacity:1;stroke-width:1.00005;stroke-dasharray:none" x="268.845" y="135.85"><tspan x="268.845" y="135.85" style="font-style:normal;font-variant:normal;font-weight:700;font-stretch:normal;font-size:7.37336px;font-family:Arial,Helvetica;text-align:end;text-anchor:end;fill:#676767;fill-opacity:1;stroke-width:1.00005;stroke-dasharray:none">39 VSYS</tspan></text>
  <text xml:space="preserve" style="font-weight:700;font-size:7.37336px;line-height:1.25;font-family:Helvetica;text-align:start;text-anchor:start;fill:#676767;fill-opacity:1;stroke-width:1.00005;stroke-dasharray:none" x="254.133" y="145.85"><tspan x="280.124" y="145.85" style="font-style:normal;font-variant:normal;font-weight:700;font-stretch:normal;font-size:7.37336px;font-family:Arial,Helvetica;text-align:start;text-anchor:start;fill:#676767;fill-opacity:1;stroke-width:1.00005;stroke-dasharray:none">38 GND</tspan></text>
  <text xml:space="preserve" style="font-weight:700;font-size:7.37336px;line-height:1.25;font-family:Helvetica;text-align:start;text-anchor:start;fill:#676767;fill-opacity:1;stroke-width:1.00005;stroke-dasharray:none" x="294.99" y="165.782"><tspan x="320.124" y="165.782" style="font-style:normal;font-variant:normal;font-weight:700;font-stretch:normal;font-size:7.37336px;font-family:Arial,Helvetica;text-align:start;text-anchor:start;fill:#676767;fill-opacity:1;stroke-width:1.00005;stroke-dasharray:none">36 3.3V</tspan></text>
  <text xml:space="preserve" style="font-weight:700;font-size:7.37336px;line-height:1.25;font-family:Helvetica;fill:#676767;fill-opacity:1" x="80.919" y="187.85"><tspan x="80.919" y="187.85" style="font-style:normal;font-variant:normal;font-weight:700;font-stretch:normal;font-size:7.37336px;font-family:Arial,Helvetica;fill:#676767;fill-opacity:1">7 GP5</tspan></text>
  <text xml:space="preserve" style="font-weight:700;font-size:7.37336px;line-height:1.25;font-family:Helvetica" x="123.692" y="350.631"><tspan x="123.692" y="350.631" style="font-style:normal;font-variant:normal;font-weight:700;font-stretch:normal;font-size:7.37336px;font-family:Arial,Helvetica">18 GND</tspan></text>
  <text xml:space="preserve" style="font-weight:700;font-size:7.37336px;line-height:1.25;font-family:Helvetica" x="194.548" y="350.631"><tspan x="194.548" y="350.631" style="font-style:normal;font-variant:normal;font-weight:700;font-stretch:normal;font-size:7.37336px;font-family:Arial,Helvetica">30 RUN</tspan></text>
  <text xml:space="preserve" style="font-weight:700;font-size:7.37336px;line-height:1.25;font-family:Helvetica;fill:#676767;fill-opacity:1" x="20.865" y="177.85"><tspan x="20.865" y="177.85" style="font-style:normal;font-variant:normal;font-weight:700;font-stretch:normal;font-size:7.37336px;font-family:Arial,Helvetica;fill:#676767;fill-opacity:1">6 GP4</tspan></text>
</svg>